<?xml version="1.0" standalone="yes"?>

<svg version="1.1" viewBox="0.0 0.0 960.0 720.0" fill="none" stroke="none" stroke-linecap="square" stroke-miterlimit="10" xmlns="http://www.w3.org/2000/svg" xmlns:xlink="http://www.w3.org/1999/xlink"><clipPath id="p.0"><path d="m0 0l960.0 0l0 720.0l-960.0 0l0 -720.0z" clip-rule="nonzero"></path></clipPath><g clip-path="url(#p.0)"><path fill="#000000" fill-opacity="0.0" d="m0 0l960.0 0l0 720.0l-960.0 0z" fill-rule="nonzero"></path><path fill="#cfe2f3" d="m403.57742 229.93307l171.90549 0l0 394.9606l-171.90549 0z" fill-rule="nonzero"></path><path stroke="#000000" stroke-width="2.0" stroke-linejoin="round" stroke-linecap="butt" d="m403.57742 229.93307l171.90549 0l0 394.9606l-171.90549 0z" fill-rule="nonzero"></path><path fill="#cfe2f3" d="m117.41732 402.72507l0 0c0 74.34659 48.628365 139.27744 118.228355 157.8641l0 -19.704712l39.40944 44.58667l-39.40944 34.23224l0 -19.704773l0 0c-69.59999 -18.586609 -118.228355 -83.51752 -118.228355 -157.86407z" fill-rule="nonzero"></path><path fill="#a5b4c2" d="m275.0551 279.09317l0 0c-79.692764 0 -146.85085 61.516327 -156.4823 143.33664l0 0c-5.453972 -46.332184 8.552292 -92.86023 38.47184 -127.80145c29.91954 -34.941193 72.88307 -54.944626 118.01045 -54.944626z" fill-rule="nonzero"></path><path fill="#000000" fill-opacity="0.0" d="m117.41732 402.72507l0 0c0 74.34659 48.628365 139.27744 118.228355 157.8641l0 -19.704712l39.40944 44.58667l-39.40944 34.23224l0 -19.704773l0 0c-69.59999 -18.586609 -118.228355 -83.51752 -118.228355 -157.86407l0 -39.409454l0 0c0 -90.04526 70.57685 -163.04134 157.63779 -163.04134l0 39.40944l0 0c-79.692764 0 -146.85085 61.516327 -156.4823 143.33664" fill-rule="nonzero"></path><path stroke="#000000" stroke-width="2.0" stroke-linejoin="round" stroke-linecap="butt" d="m117.41732 402.72507l0 0c0 74.34659 48.628365 139.27744 118.228355 157.8641l0 -19.704712l39.40944 44.58667l-39.40944 34.23224l0 -19.704773l0 0c-69.59999 -18.586609 -118.228355 -83.51752 -118.228355 -157.86407l0 -39.409454l0 0c0 -90.04526 70.57685 -163.04134 157.63779 -163.04134l0 39.40944l0 0c-79.692764 0 -146.85085 61.516327 -156.4823 143.33664" fill-rule="nonzero"></path><path fill="#cfe2f3" d="m833.99475 448.5059l0 0c0 -74.34656 -48.628357 -139.27747 -118.22833 -157.8641l0 19.704742l-39.409485 -44.5867l39.409485 -34.23221l0 19.704727l0 0c69.599976 18.586655 118.22833 83.51753 118.22833 157.86409z" fill-rule="nonzero"></path><path fill="#a5b4c2" d="m676.35693 572.1378l0 0c79.69281 0 146.85089 -61.516327 156.4823 -143.33664l0 0c5.4539795 46.332153 -8.552246 92.8602 -38.4718 127.80142c-29.919556 34.941223 -72.88306 54.94464 -118.0105 54.94464z" fill-rule="nonzero"></path><path fill="#000000" fill-opacity="0.0" d="m833.99475 448.5059l0 0c0 -74.34656 -48.628357 -139.27747 -118.22833 -157.8641l0 19.704742l-39.409485 -44.5867l39.409485 -34.23221l0 19.704727l0 0c69.599976 18.586655 118.22833 83.51753 118.22833 157.86409l0 39.409454l0 0c0 90.04526 -70.57684 163.04135 -157.63782 163.04135l0 -39.409424l0 0c79.69281 0 146.85089 -61.516327 156.4823 -143.33664" fill-rule="nonzero"></path><path stroke="#000000" stroke-width="2.0" stroke-linejoin="round" stroke-linecap="butt" d="m833.99475 448.5059l0 0c0 -74.34656 -48.628357 -139.27747 -118.22833 -157.8641l0 19.704742l-39.409485 -44.5867l39.409485 -34.23221l0 19.704727l0 0c69.599976 18.586655 118.22833 83.51753 118.22833 157.86409l0 39.409454l0 0c0 90.04526 -70.57684 163.04135 -157.63782 163.04135l0 -39.409424l0 0c79.69281 0 146.85089 -61.516327 156.4823 -143.33664" fill-rule="nonzero"></path><path fill="#000000" fill-opacity="0.0" d="m550.4514 226.35039l157.63782 0l0 66.645676l-157.63782 0z" fill-rule="nonzero"></path><path fill="#000000" d="m612.2703 259.17136l-7.421875 0l0 -1.640625l15.21875 0l0 1.640625l-6.078125 0l0 0.96875q0 4.671875 -3.34375 7.71875l-1.484375 -1.109375q3.109375 -2.453125 3.109375 -6.609375l0 -0.96875zm-4.75 -4.53125l0 -1.625l9.140625 0l0 1.625l-9.140625 0zm10.09375 -3.046875q0.96875 0.96875 2.078125 2.609375l-1.03125 0.734375q-1.046875 -1.484375 -2.078125 -2.671875l1.03125 -0.671875zm1.78125 -0.953125q0.96875 1.03125 2.078125 2.515625l-1.03125 0.75q-1.1875 -1.640625 -2.078125 -2.53125l1.03125 -0.734375zm3.4921875 9.859375l0 -1.625l16.546875 0l0 1.625l-16.546875 0zm24.648438 -7.71875q-0.296875 0.890625 -0.75 1.71875l4.96875 0l0.828125 -0.296875l0.953125 0.953125q0.296875 0.375 -0.296875 0.59375q-0.59375 2.96875 -1.78125 5.421875l1.78125 1.1875l-1.109375 1.640625l-1.625 -1.1875q-2.15625 3.109375 -6.171875 5.125l-1.703125 -1.265625q4.453125 -1.859375 6.390625 -4.90625q-1.859375 -1.1875 -3.640625 -2.15625l0.890625 -1.328125q2.296875 1.03125 3.78125 1.921875q1.109375 -2.296875 1.34375 -4.078125l-5.421875 0q-1.40625 2.53125 -3.484375 4.609375l-1.421875 -0.96875q3.796875 -3.9375 4.984375 -8.3125l1.78125 0.734375q0.59375 0.296875 -0.296875 0.59375z" fill-rule="nonzero"></path><path fill="#000000" fill-opacity="0.0" d="m550.4514 558.2349l157.63782 0l0 66.64563l-157.63782 0z" fill-rule="nonzero"></path><path fill="#000000" d="m612.2703 591.05585l-7.421875 0l0 -1.640625l15.21875 0l0 1.640625l-6.078125 0l0 0.96875q0 4.671875 -3.34375 7.71875l-1.484375 -1.109375q3.109375 -2.453125 3.109375 -6.609375l0 -0.96875zm-4.75 -4.53125l0 -1.625l9.140625 0l0 1.625l-9.140625 0zm10.09375 -3.046875q0.96875 0.96875 2.078125 2.609375l-1.03125 0.734375q-1.046875 -1.484375 -2.078125 -2.671875l1.03125 -0.671875zm1.78125 -0.953125q0.96875 1.03125 2.078125 2.515625l-1.03125 0.75q-1.1875 -1.640625 -2.078125 -2.53125l1.03125 -0.734375zm3.4921875 9.859375l0 -1.625l16.546875 0l0 1.625l-16.546875 0zm24.648438 -7.71875q-0.296875 0.890625 -0.75 1.71875l4.96875 0l0.828125 -0.296875l0.953125 0.953125q0.296875 0.375 -0.296875 0.59375q-0.59375 2.96875 -1.78125 5.421875l1.78125 1.1875l-1.109375 1.640625l-1.625 -1.1875q-2.15625 3.109375 -6.171875 5.125l-1.703125 -1.265625q4.453125 -1.859375 6.390625 -4.90625q-1.859375 -1.1875 -3.640625 -2.15625l0.890625 -1.328125q2.296875 1.03125 3.78125 1.921875q1.109375 -2.296875 1.34375 -4.078125l-5.421875 0q-1.40625 2.53125 -3.484375 4.609375l-1.421875 -0.96875q3.796875 -3.9375 4.984375 -8.3125l1.78125 0.734375q0.59375 0.296875 -0.296875 0.59375z" fill-rule="nonzero"></path><path fill="#000000" fill-opacity="0.0" d="m259.0538 226.35039l157.63782 0l0 66.645676l-157.63782 0z" fill-rule="nonzero"></path><path fill="#000000" d="m315.90787 256.71823l4.375 0l0 1.640625l-4.296875 0l0 1.40625q0 5.5625 -5.875 7.9375l-1.1875 -1.328125q5.34375 -1.78125 5.34375 -6.46875l0 -1.546875l-4.890625 0l0.078125 3.78125l-1.640625 0l-0.078125 -3.78125l-4.15625 0l0 -1.640625l4.15625 0l-0.0625 -3.9375l1.546875 0q0.75 0.078125 0.078125 0.75l0.078125 3.1875l4.828125 0l0 -4.53125l1.625 0q0.75 0.078125 0.078125 0.75l0 3.78125zm6.453125 3.78125l0 -1.625l16.546875 0l0 1.625l-16.546875 0zm30.210938 -3.109375q0.375 0.671875 -0.671875 0.21875q-4.15625 1.109375 -8.75 1.703125l0 4.828125q0 0.96875 0.953125 0.96875l8.546875 0l-0.15625 1.640625l-8.6875 0q-2.375 0 -2.375 -1.9375l0 -11.65625l1.484375 0q0.828125 0.15625 0.234375 0.59375l0 3.78125q5.046875 -0.59375 8.828125 -1.84375l0.59375 1.703125zm-0.890625 -2.453125q-1.1875 -1.484375 -2.296875 -2.59375l1.03125 -0.8125q1.046875 0.953125 2.296875 2.59375l-1.03125 0.8125zm2.15625 -1.03125q-1.34375 -1.5625 -2.3125 -2.53125l0.890625 -0.8125q1.125 1.03125 2.375 2.515625l-0.953125 0.828125zm12.246094 5.9375q3.1875 2.4375 6.296875 5.640625l-1.484375 1.265625q-3.109375 -3.28125 -6.0 -5.5q-2.90625 3.109375 -6.609375 5.5625l-1.40625 -1.265625q7.859375 -5.109375 10.09375 -10.234375l-8.09375 0.515625l-0.21875 -1.78125l8.609375 -0.375l0.890625 -0.21875l1.1875 1.1875q0.515625 0.515625 -0.296875 0.671875q-1.421875 2.453125 -2.96875 4.53125z" fill-rule="nonzero"></path><path fill="#000000" fill-opacity="0.0" d="m259.0551 558.2349l157.63782 0l0 66.64563l-157.63782 0z" fill-rule="nonzero"></path><path fill="#000000" d="m308.8916 576.2746q-0.890625 0 -1.484375 -0.59375q-0.59375 -0.59375 -0.59375 -1.484375q0 -0.890625 0.59375 -1.484375q0.59375 -0.59375 1.484375 -0.59375q0.890625 0 1.484375 0.59375q0.59375 0.59375 0.59375 1.484375q0 0.890625 -0.59375 1.484375q-0.59375 0.59375 -1.484375 0.59375zm0 -0.75q0.59375 0 0.96875 -0.375q0.375 -0.359375 0.375 -0.953125q0 -0.59375 -0.375 -0.96875q-0.375 -0.375 -0.96875 -0.375q-0.59375 0 -0.96875 0.375q-0.359375 0.375 -0.359375 0.96875q0 0.59375 0.359375 0.953125q0.375 0.375 0.96875 0.375zm-2.96875 0.375q3.71875 4.671875 5.265625 9.875l-2.0 0.65625q-1.859375 -5.859375 -4.828125 -9.34375l1.5625 -1.1875zm-5.640625 1.703125q0.59375 0.375 -0.140625 0.671875q-1.34375 4.671875 -4.3125 8.53125l-1.703125 -1.109375q3.265625 -3.9375 4.375 -8.90625l1.78125 0.8125zm12.765625 3.78125l0 -1.625l16.546875 0l0 1.625l-16.546875 0zm27.085938 1.046875q1.71875 -2.296875 2.3125 -7.71875l1.84375 0.296875q0.671875 0.140625 -0.0625 0.671875q-0.453125 4.75 -2.75 8.015625q-1.703125 2.4375 -6.390625 4.890625l-1.328125 -1.328125q4.234375 -1.9375 6.375 -4.828125zm-6.078125 -2.453125q-1.34375 -2.890625 -2.59375 -4.375l1.625 -0.890625q1.265625 1.5625 2.671875 4.296875l-1.703125 0.96875zm21.601562 -2.375l6.890625 0l0 1.640625l-6.828125 0l0 1.328125q0 5.5 -4.75 8.3125l-1.546875 -1.1875q4.59375 -2.375 4.59375 -7.125l0 -1.328125l-7.34375 0l0 -1.640625l7.265625 0l0 -4.453125l1.484375 0q0.828125 0.078125 0.234375 0.59375l0 3.859375zm19.074219 7.71875q3.265625 -1.265625 6.0 -5.046875l1.046875 1.40625q-2.828125 3.859375 -7.125 5.578125l-0.59375 0.296875l-1.1875 -0.890625l0.140625 -0.375l0 -11.953125l1.5625 0q0.671875 0.15625 0.15625 0.59375l0 10.390625zm-9.953125 2.0q3.71875 -3.5625 3.71875 -8.828125l0 -3.34375l1.546875 0q0.671875 0.15625 0.15625 0.59375l0 2.671875q0 6.234375 -3.9375 9.875l-1.484375 -0.96875z" fill-rule="nonzero"></path><path fill="#000000" d="m320.87402 602.05585l-7.421875 0l0 -1.640625l15.21875 0l0 1.640625l-6.078125 0l0 0.96875q0 4.671875 -3.34375 7.71875l-1.484375 -1.109375q3.109375 -2.453125 3.109375 -6.609375l0 -0.96875zm-4.75 -4.53125l0 -1.625l9.140625 0l0 1.625l-9.140625 0zm10.09375 -3.046875q0.96875 0.96875 2.078125 2.609375l-1.03125 0.734375q-1.046875 -1.484375 -2.078125 -2.671875l1.03125 -0.671875zm1.78125 -0.953125q0.96875 1.03125 2.078125 2.515625l-1.03125 0.75q-1.1875 -1.640625 -2.078125 -2.53125l1.03125 -0.734375zm3.4921875 9.859375l0 -1.625l16.546875 0l0 1.625l-16.546875 0zm24.648438 -7.71875q-0.296875 0.890625 -0.75 1.71875l4.96875 0l0.828125 -0.296875l0.953125 0.953125q0.296875 0.375 -0.296875 0.59375q-0.59375 2.96875 -1.78125 5.421875l1.78125 1.1875l-1.109375 1.640625l-1.625 -1.1875q-2.15625 3.109375 -6.171875 5.125l-1.703125 -1.265625q4.453125 -1.859375 6.390625 -4.90625q-1.859375 -1.1875 -3.640625 -2.15625l0.890625 -1.328125q2.296875 1.03125 3.78125 1.921875q1.109375 -2.296875 1.34375 -4.078125l-5.421875 0q-1.40625 2.53125 -3.484375 4.609375l-1.421875 -0.96875q3.796875 -3.9375 4.984375 -8.3125l1.78125 0.734375q0.59375 0.296875 -0.296875 0.59375z" fill-rule="nonzero"></path><path fill="#000000" fill-opacity="0.0" d="m117.41732 377.25067l208.28345 0l0 66.64566l-208.28345 0z" fill-rule="nonzero"></path><path fill="#000000" d="m194.24655 396.77475l0 -1.1875l2.96875 0q0.21875 -0.890625 0.375 -1.71875l-0.8125 0q-0.53125 0.890625 -1.046875 1.421875l-1.109375 -0.890625q1.265625 -1.34375 2.0 -3.265625l1.40625 0.296875q0.375 0.21875 -0.21875 0.359375l-0.4375 0.890625l4.890625 0l0 1.1875l-3.265625 0q-0.078125 0.75 -0.296875 1.71875l4.015625 0l0 1.1875l-3.203125 0l1.125 0.515625q0.359375 0.296875 -0.15625 0.375l-0.515625 0.890625l2.296875 0l0 1.1875l-2.21875 0l0 0.953125l1.78125 0l0 1.1875l-1.78125 0l0 0.96875l1.84375 0l0 1.1875l-1.84375 0l0 1.109375l2.296875 0l0 1.1875l-5.203125 0l0 1.34375l-1.25 0l0 -7.203125q-0.453125 0.515625 -1.265625 1.1875l-0.890625 -1.265625q2.296875 -1.546875 3.109375 -3.625l-2.59375 0zm4.078125 0q-0.296875 0.953125 -0.890625 1.78125l1.421875 0l0.515625 -1.78125l-1.046875 0zm5.046875 -4.75l6.6875 0l0 10.015625l-1.5625 0l0 3.703125q0 0.59375 0.375 0.59375l0.375 0q0.515625 0 0.59375 -0.4375l0.140625 -1.265625l1.5625 0.375l-0.21875 1.328125q-0.234375 1.421875 -1.34375 1.421875l-1.625 0q-1.34375 0 -1.34375 -1.265625l0 -4.453125l-0.890625 0l0 0.890625q0 3.859375 -3.9375 5.34375l-0.734375 -1.40625q3.1875 -1.046875 3.1875 -3.9375l0 -0.890625l-0.671875 0l-0.59375 0l0 -10.015625zm1.265625 7.046875l0 1.78125l4.15625 0l0 -1.78125l-4.15625 0zm0 -1.1875l4.15625 0l0 -1.703125l-4.15625 0l0 1.703125zm0 -2.890625l4.15625 0l0 -1.78125l-4.15625 0l0 1.78125zm-7.5 10.15625l1.640625 0l0 -1.109375l-1.640625 0l0 1.109375zm0 -2.296875l1.640625 0l0 -0.96875l-1.640625 0l0 0.96875zm0 -3.109375l0 0.953125l1.640625 0l0 -0.953125l-1.640625 0zm32.734375 4.296875l-0.296875 2.0q-0.21875 1.421875 -1.5625 1.421875l-4.0 0q-1.34375 0 -1.34375 -1.265625l0 -6.6875l-2.4375 0l0 1.78125q0 5.203125 -6.3125 6.90625l-0.671875 -1.703125q5.5 -1.265625 5.5 -5.71875l0 -1.265625l-5.421875 0l0 -1.40625l7.203125 0l0 -6.75l1.625 0q0.75 0.140625 0.078125 0.59375l0 6.15625l7.265625 0l0 1.40625l-5.34375 0l0 5.9375q0 0.59375 0.53125 0.59375l2.59375 0q0.59375 0 0.671875 -0.515625l0.21875 -1.921875l1.703125 0.4375zm-6.015625 -7.640625q1.1875 -1.703125 1.9375 -3.9375l1.703125 0.96875q0.296875 0.296875 -0.21875 0.375q-0.75 1.84375 -1.859375 3.328125l-1.5625 -0.734375zm-6.96875 0.671875q-0.8125 -1.859375 -1.859375 -3.203125l1.640625 -0.953125q1.03125 1.25 1.921875 3.265625l-1.703125 0.890625zm24.421875 -5.9375q0.734375 0.140625 0.0625 0.59375l0 1.109375l6.984375 0l0 3.703125l-1.484375 0l0 -2.515625l-12.6875 0l0 2.515625l-1.484375 0l0 -3.703125l6.96875 0l0 -1.703125l1.640625 0zm-0.453125 9.125q-2.0 1.328125 -4.296875 2.078125l9.046875 0l0 5.71875l-1.484375 0l0 -0.453125l-6.828125 0l0 0.453125l-1.484375 0l0 -5.34375q-1.703125 0.65625 -2.96875 0.953125l-0.59375 -1.546875q4.078125 -0.890625 7.421875 -2.671875q-0.96875 -0.75 -2.078125 -2.015625q-1.1875 1.421875 -3.5625 2.828125l-0.8125 -1.265625q3.265625 -1.859375 4.75 -4.59375l1.40625 0.4375q0.296875 0.296875 -0.21875 0.375l-0.375 0.515625l4.96875 0l0.296875 -0.296875l1.265625 0.96875l-0.375 0.296875q-1.25 1.484375 -2.96875 2.75q2.609375 1.1875 7.203125 1.921875l-0.515625 1.5625q-5.421875 -1.109375 -7.796875 -2.671875zm3.265625 5.9375l0 -2.453125l-6.828125 0l0 2.453125l6.828125 0zm-3.40625 -7.5q0.953125 -0.671875 2.0 -1.78125l-4.078125 0q0.890625 1.046875 2.078125 1.78125z" fill-rule="nonzero"></path><path fill="#000000" d="m151.38132 417.21225q0.828125 -1.703125 2.75 -3.484375l0.8125 0.734375q-1.84375 1.703125 -2.59375 3.265625q-0.8125 1.703125 -0.8125 4.078125q0 2.015625 0.8125 3.796875q0.75 1.625 2.59375 3.640625l-0.8125 0.8125q-1.859375 -2.078125 -2.75 -3.9375q-0.953125 -2.0 -0.953125 -4.3125q0 -2.59375 0.953125 -4.59375zm20.9375 8.15625l0 1.640625l-14.765625 0l0 -1.640625l6.453125 0l0 -7.34375l-5.203125 0l0 -1.625l12.03125 0l0 1.625l-5.125 0l0 7.34375l6.609375 0zm16.621094 -5.484375q-3.9375 8.15625 -13.203125 8.609375q-0.375 0.96875 -0.75 0.15625l-0.59375 -1.9375q9.65625 -0.21875 12.984375 -7.9375l1.5625 1.109375zm-10.46875 0q-2.0 -1.859375 -3.78125 -3.046875l1.265625 -1.5625q1.5625 0.96875 3.9375 3.203125l-1.421875 1.40625zm21.824219 4.234375q-3.9375 -2.015625 -6.453125 -2.671875l0 7.71875l-1.703125 0l0 -14.84375l1.484375 0q0.890625 0.0625 0.21875 0.59375l0 4.671875q3.640625 1.03125 7.34375 2.8125l-0.890625 1.71875zm-0.140625 -6.53125q-1.265625 -1.5625 -2.53125 -2.53125l0.96875 -0.734375q1.265625 0.953125 2.515625 2.515625l-0.953125 0.75zm1.78125 -1.421875q-0.96875 -1.25 -2.453125 -2.4375l0.96875 -0.75q1.25 0.890625 2.4375 2.453125l-0.953125 0.734375zm7.7148438 3.859375l0 3.203125l-3.1875 0l0 -3.203125l3.1875 0zm20.265625 7.28125l-16.03125 0l0 -1.640625l9.5625 0l0.234375 -6.96875l-7.28125 0l0 -1.640625l9.0625 0l-0.234375 8.609375l4.6875 0l0 1.640625zm2.0703125 -4.90625l0 -1.625l16.546875 0l0 1.625l-16.546875 0zm30.804688 -3.78125l4.375 0l0 1.640625l-4.296875 0l0 1.40625q0 5.5625 -5.875 7.9375l-1.1875 -1.328125q5.34375 -1.78125 5.34375 -6.46875l0 -1.546875l-4.890625 0l0.078125 3.78125l-1.640625 0l-0.078125 -3.78125l-4.15625 0l0 -1.640625l4.15625 0l-0.0625 -3.9375l1.546875 0q0.75 0.078125 0.078125 0.75l0.078125 3.1875l4.828125 0l0 -4.53125l1.625 0q0.75 0.078125 0.078125 0.75l0 3.78125zm1.328125 -4.890625q1.1875 1.03125 2.375 2.4375l-0.953125 0.828125q-1.1875 -1.484375 -2.234375 -2.375l0.8125 -0.890625zm1.421875 -1.265625q1.25 1.03125 2.375 2.453125l-0.96875 0.8125q-1.109375 -1.484375 -2.234375 -2.375l0.828125 -0.890625zm3.703125 9.9375l0 -1.625l16.546875 0l0 1.625l-16.546875 0zm22.414062 3.71875q-0.890625 1.859375 -2.75 3.9375l-0.8125 -0.8125q1.859375 -2.015625 2.59375 -3.640625q0.828125 -1.78125 0.828125 -3.796875q0 -2.375 -0.828125 -4.078125q-0.734375 -1.5625 -2.59375 -3.265625l0.8125 -0.734375q1.9375 1.78125 2.75 3.484375q0.96875 2.0 0.96875 4.59375q0 2.3125 -0.96875 4.3125z" fill-rule="nonzero"></path><path fill="#000000" fill-opacity="0.0" d="m625.7122 377.25198l208.28345 0l0 66.64566l-208.28345 0z" fill-rule="nonzero"></path><path fill="#000000" d="m711.0727 392.96356q0.53125 0.890625 2.078125 1.78125l0 -5.046875l-4.671875 0l0 -1.40625l10.765625 0l0 1.40625l-4.609375 0l0 1.640625l3.5 0l0 1.40625l-3.5 0l0 2.53125q0.671875 0.140625 1.71875 0.140625l3.03125 0l-0.21875 1.421875l-2.96875 0q-3.640625 0 -5.640625 -2.453125q-1.328125 2.078125 -2.59375 2.75l-0.96875 -1.1875q2.75 -2.09375 3.125 -5.421875l1.546875 0.359375q0.53125 0.296875 -0.140625 0.453125l-0.453125 1.625zm-4.890625 -4.296875l1.484375 -0.515625l0.296875 1.25l-1.78125 0.75l0 5.640625q0 1.1875 -1.1875 1.1875l-1.484375 0l-0.21875 -1.40625l1.109375 0q0.296875 0 0.296875 -0.296875l0 -4.609375l-1.703125 0.671875q-0.15625 0.515625 -0.296875 0.21875l-0.453125 -1.703125l2.453125 -0.75l0 -4.375l-2.078125 0l0 -1.40625l2.078125 0l0 -3.1875l1.40625 0q0.59375 0.0625 0.078125 0.4375l0 2.75l2.15625 0l0 1.40625l-2.15625 0l0 3.9375zm3.40625 -7.875l8.25 0l0 6.234375l-8.25 0l0 -6.234375zm1.265625 1.1875l0 1.34375l5.71875 0l0 -1.34375l-5.71875 0zm0 2.53125l0 1.328125l5.71875 0l0 -1.328125l-5.71875 0zm12.765625 3.40625q-0.734375 1.1875 -1.40625 1.71875l-0.890625 -1.421875q2.59375 -3.109375 3.34375 -8.078125l1.625 0.359375q0.671875 0.234375 -0.078125 0.375q-0.515625 2.15625 -1.1875 4.234375q1.046875 0.296875 0.078125 0.734375l0 11.296875l-1.484375 0l0 -9.21875zm10.609375 3.9375q1.484375 2.375 3.859375 3.640625l-1.109375 1.40625q-2.296875 -1.109375 -4.15625 -4.15625l1.40625 -0.890625zm-8.53125 3.71875q2.828125 -1.71875 3.859375 -3.71875l1.265625 0.8125q0.515625 0.453125 -0.15625 0.453125q-1.84375 2.453125 -4.0 3.859375l-0.96875 -1.40625zm8.828125 -15.21875q0.75 0.140625 0.078125 0.59375l0 3.34375l2.75 0l0 1.40625l-2.75 0l0 4.15625l3.484375 0l0 1.40625l-12.171875 0l0 -1.40625l2.96875 0l0 -4.15625l-2.296875 0l0 -1.40625l2.296875 0l0 -3.859375l1.421875 0q0.734375 0.140625 0.0625 0.59375l0 3.265625l2.75 0l0 -3.9375l1.40625 0zm-1.40625 5.34375l-2.75 0l0 4.15625l2.75 0l0 -4.15625zm21.375 2.59375l0 8.609375l-1.484375 0l0 -0.734375l-6.671875 0l0 0.96875l-1.484375 0l0 -6.765625q-1.9375 1.046875 -4.15625 1.640625l-0.53125 -1.34375q2.078125 -0.515625 4.6875 -1.859375l0 -0.515625l1.03125 0q1.5625 -0.890625 2.671875 -1.78125l-7.796875 0l0 -1.40625l6.53125 0l0 -1.78125l-4.59375 0l0 -1.40625l4.59375 0l0 -1.78125l1.421875 0q0.59375 0.0625 0.0625 0.4375l0 1.34375l3.5625 0l0 1.25q0.890625 -0.953125 1.78125 -2.140625l1.046875 0.65625q0.515625 0.375 -0.15625 0.453125q-1.40625 1.703125 -2.8125 2.96875l5.125 0l0 1.40625l-6.6875 0q-1.484375 1.265625 -2.375 1.78125l6.234375 0zm-4.296875 -3.1875q0.890625 -0.671875 2.0 -1.78125l-3.421875 0l0 1.78125l1.421875 0zm-3.859375 6.375l6.671875 0l0 -2.0l-6.671875 0l0 2.0zm0 3.5l6.671875 0l0 -2.3125l-6.671875 0l0 2.3125z" fill-rule="nonzero"></path><path fill="#000000" d="m680.765 406.21356q0.828125 -1.703125 2.75 -3.484375l0.8125 0.734375q-1.84375 1.703125 -2.59375 3.265625q-0.8125 1.703125 -0.8125 4.078125q0 2.015625 0.8125 3.796875q0.75 1.625 2.59375 3.640625l-0.8125 0.8125q-1.859375 -2.078125 -2.75 -3.9375q-0.953125 -2.0 -0.953125 -4.3125q0 -2.59375 0.953125 -4.59375zm9.578125 3.9375l1.640625 0q0.734375 0.0625 0.0625 0.4375l0 6.53125l2.671875 0l0 -9.421875l1.640625 0q0.734375 0.078125 0.078125 0.4375l0 3.203125l4.515625 0l0 1.40625l-4.515625 0l0 4.375l6.96875 0l0 1.421875l-16.109375 0l0 -1.421875l3.046875 0l0 -6.96875zm-3.5625 -1.484375q5.5625 -1.859375 7.9375 -6.234375l1.5625 0.21875q0.296875 0.21875 -0.21875 0.515625q2.515625 3.421875 7.71875 5.125l-0.59375 1.859375q-5.125 -1.859375 -8.015625 -5.640625q-2.59375 4.0 -7.578125 5.859375l-0.8125 -1.703125zm19.75 8.3125q4.15625 -0.96875 6.53125 -3.203125l-6.53125 0l0 -1.1875l7.1875 0l0 -1.109375l-4.8125 0l0 -1.1875l4.8125 0l0 -1.1875l-5.640625 0l0 -1.1875l3.859375 0l-0.8125 -1.40625l-4.59375 0l0 -1.1875l3.484375 0q-0.515625 -0.75 -1.34375 -1.40625l1.125 -0.890625q0.890625 0.515625 1.703125 1.625l-0.8125 0.671875l1.546875 0l0 -3.125l1.421875 0q0.59375 0.078125 0.0625 0.453125l0 2.671875l1.421875 0l0 -3.125l1.40625 0q0.59375 0.078125 0.078125 0.453125l0 2.671875l1.78125 0l-0.828125 -0.59375q0.75 -1.046875 1.34375 -1.9375l1.109375 0.75q0.515625 0.296875 -0.078125 0.375q-0.359375 0.65625 -1.03125 1.40625l3.5625 0l0 1.1875l-4.671875 0l-0.828125 1.40625l4.09375 0l0 1.1875l-5.875 0l0 1.1875l4.984375 0l0 1.1875l-4.984375 0l0 1.109375l7.359375 0l0 1.1875l-6.46875 0q2.609375 2.3125 6.53125 3.125l-0.59375 1.5625q-4.078125 -1.046875 -6.828125 -3.5625l0 4.15625l-1.484375 0l0 -4.015625q-2.59375 2.296875 -6.59375 3.421875l-0.59375 -1.484375zm6.828125 -9.0625l2.296875 0l0.734375 -1.40625l-3.859375 0l0.828125 1.40625zm16.84375 1.109375l0 3.203125l-3.1875 0l0 -3.203125l3.1875 0z" fill-rule="nonzero"></path><path fill="#000000" d="m734.84314 417.4948l0 -13.59375l1.84375 0l7.140625 10.671875l0 -10.671875l1.71875 0l0 13.59375l-1.84375 0l-7.140625 -10.6875l0 10.6875l-1.71875 0zm13.488525 0l0 -13.59375l5.125 0q1.359375 0 2.078125 0.125q1.0 0.171875 1.671875 0.640625q0.671875 0.46875 1.078125 1.3125q0.421875 0.84375 0.421875 1.84375q0 1.734375 -1.109375 2.9375q-1.09375 1.203125 -3.984375 1.203125l-3.484375 0l0 5.53125l-1.796875 0zm1.796875 -7.140625l3.515625 0q1.75 0 2.46875 -0.640625q0.734375 -0.65625 0.734375 -1.828125q0 -0.859375 -0.4375 -1.46875q-0.421875 -0.609375 -1.125 -0.796875q-0.453125 -0.125 -1.671875 -0.125l-3.484375 0l0 4.859375zm10.0998535 0.515625q0 -3.390625 1.8125 -5.296875q1.828125 -1.921875 4.703125 -1.921875q1.875 0 3.390625 0.90625q1.515625 0.890625 2.296875 2.5q0.796875 1.609375 0.796875 3.65625q0 2.0625 -0.84375 3.703125q-0.828125 1.625 -2.359375 2.46875q-1.53125 0.84375 -3.296875 0.84375q-1.921875 0 -3.4375 -0.921875q-1.5 -0.9375 -2.28125 -2.53125q-0.78125 -1.609375 -0.78125 -3.40625zm1.859375 0.03125q0 2.453125 1.3125 3.875q1.328125 1.40625 3.3125 1.40625q2.03125 0 3.34375 -1.421875q1.3125 -1.4375 1.3125 -4.0625q0 -1.65625 -0.5625 -2.890625q-0.546875 -1.234375 -1.640625 -1.921875q-1.078125 -0.6875 -2.421875 -0.6875q-1.90625 0 -3.28125 1.3125q-1.375 1.3125 -1.375 4.390625z" fill-rule="nonzero"></path><path fill="#000000" d="m778.8648 415.1198q-0.890625 1.859375 -2.75 3.9375l-0.8125 -0.8125q1.859375 -2.015625 2.59375 -3.640625q0.828125 -1.78125 0.828125 -3.796875q0 -2.375 -0.828125 -4.078125q-0.734375 -1.5625 -2.59375 -3.265625l0.8125 -0.734375q1.9375 1.78125 2.75 3.484375q0.96875 2.0 0.96875 4.59375q0 2.3125 -0.96875 4.3125z" fill-rule="nonzero"></path><path fill="#000000" d="m672.47894 428.21356q0.828125 -1.703125 2.75 -3.484375l0.8125 0.734375q-1.84375 1.703125 -2.59375 3.265625q-0.8125 1.703125 -0.8125 4.078125q0 2.015625 0.8125 3.796875q0.75 1.625 2.59375 3.640625l-0.8125 0.8125q-1.859375 -2.078125 -2.75 -3.9375q-0.953125 -2.0 -0.953125 -4.3125q0 -2.59375 0.953125 -4.59375zm19.453125 2.296875l0 -2.453125l-9.359375 0l0 2.453125l9.359375 0zm0 1.40625l-9.359375 0l0 2.53125l9.359375 0l0 -2.53125zm0 6.6875l0 -2.75l-9.359375 0l0 2.75l9.359375 0zm-6.234375 -11.953125l0.671875 -2.59375l1.78125 0.375q0.296875 0.296875 -0.234375 0.359375l-0.8125 1.859375l6.3125 0l0 14.03125l-1.484375 0l0 -0.671875l-9.359375 0l0 0.890625l-1.484375 0l0 -14.25l4.609375 0zm24.78125 0.078125q2.3125 2.078125 4.09375 4.828125l-1.484375 0.953125q-0.375 -0.734375 -0.890625 -1.40625q-4.453125 0.375 -8.765625 0.75q-0.375 0.515625 -0.4375 0.21875l-0.59375 -1.859375q1.109375 0 2.21875 -0.078125q1.640625 -3.109375 2.59375 -6.078125l1.484375 0.59375q0.53125 0.21875 -0.0625 0.4375q-0.96875 2.453125 -2.453125 5.046875q2.515625 -0.140625 5.046875 -0.296875q-0.890625 -1.1875 -1.859375 -2.140625l1.109375 -0.96875zm-12.765625 12.765625q1.9375 -2.15625 3.5 -5.203125l1.328125 0.890625q-1.484375 2.90625 -3.1875 5.28125q0.078125 0.734375 -0.375 0.375l-1.265625 -1.34375zm13.59375 0.515625l-5.796875 0l0 0.890625l-1.484375 0l0 -7.640625l8.765625 0l0 7.421875l-1.484375 0l0 -0.671875zm0 -5.34375l-5.796875 0l0 3.9375l5.796875 0l0 -3.9375zm-10.625 -2.296875q-1.109375 -1.109375 -2.59375 -1.9375l1.046875 -1.328125q1.484375 0.734375 2.671875 1.859375l-1.125 1.40625zm1.1875 -4.015625q-1.328125 -1.328125 -2.734375 -1.921875l0.890625 -1.40625q1.1875 0.515625 2.8125 1.84375l-0.96875 1.484375zm18.859375 8.3125q3.640625 -3.328125 5.34375 -7.421875l-4.671875 0l0 -1.40625l5.046875 0l0 -3.703125l1.40625 0q0.59375 0.0625 0.078125 0.4375l0 3.265625l5.34375 0l0 1.40625l-4.90625 0q1.1875 3.5625 5.34375 7.421875l-1.03125 1.484375q-3.203125 -3.1875 -4.75 -6.453125l0 4.3125l2.140625 0l0 1.40625l-2.140625 0l0 3.640625l-1.484375 0l0 -3.640625l-1.9375 0l0 -1.40625l1.9375 0l0 -4.3125q-1.78125 3.9375 -4.609375 6.390625l-1.109375 -1.421875zm0.59375 -11.640625q-0.375 1.921875 -1.046875 3.625q0.59375 0.234375 0 0.53125l0 12.015625l-1.484375 0l0 -9.28125q-0.515625 1.125 -1.328125 1.9375l-1.046875 -1.34375q2.53125 -3.40625 3.5 -8.453125l1.625 0.59375q0.375 0.296875 -0.21875 0.375zm19.59375 6.0l0 3.203125l-3.1875 0l0 -3.203125l3.1875 0zm16.546875 4.15625q1.109375 -2.0 1.34375 -5.78125l-3.265625 0q0.359375 3.640625 1.921875 5.78125zm3.859375 5.71875q-2.296875 -1.25 -3.859375 -3.34375q-2.21875 2.390625 -5.5625 3.5l-0.75 -1.640625q3.125 -0.734375 5.421875 -3.046875q-1.484375 -2.375 -1.859375 -4.890625q-0.59375 1.703125 -1.625 2.890625l-0.96875 -1.265625l0.671875 -0.890625l-2.078125 0l0 4.828125l2.671875 -0.671875l0.21875 1.421875l-7.5625 2.0q-0.078125 0.515625 -0.375 0.21875l-0.453125 -1.859375l0.96875 -0.140625l0 -8.234375l1.40625 0q0.59375 0.0625 0.078125 0.4375l0 7.5l1.5625 -0.296875l0 -10.390625l-3.71875 0l0 -1.40625l8.09375 0l0 1.40625l-2.890625 0l0 3.78125l2.15625 0l0 1.265625q1.703125 -2.96875 2.140625 -7.875l1.71875 0.453125q0.296875 0.296875 -0.234375 0.375q-0.296875 1.921875 -0.65625 2.96875l6.078125 0l0 1.40625l-1.625 0q-0.15625 4.078125 -1.859375 6.96875q1.1875 1.5625 3.703125 2.90625l-0.8125 1.625zm10.546875 -11.875q-0.453125 1.34375 -1.046875 2.59375q0.890625 0.234375 0.15625 0.53125l0 8.984375l-1.484375 0l0 -7.203125q-0.59375 0.953125 -1.265625 1.546875l-0.890625 -1.40625q2.375 -2.671875 3.046875 -5.859375l1.703125 0.375q0.296875 0.21875 -0.21875 0.4375zm1.703125 4.75q1.265625 1.34375 1.921875 2.890625l-1.546875 0.96875q-0.671875 -1.5625 -1.78125 -2.890625l1.40625 -0.96875zm3.046875 -2.890625l0 -2.75l1.40625 0q0.59375 0.078125 0.078125 0.453125l0 2.296875l2.671875 0l0 1.40625l-2.671875 0l0 7.5q0 1.1875 -1.1875 1.1875l-1.484375 0l-0.234375 -1.40625l1.125 0q0.296875 0 0.296875 -0.296875l0 -6.984375l-4.609375 0l0 -1.40625l4.609375 0zm-9.5 -3.265625l0 6.53125q0 4.53125 -1.78125 6.90625l-1.265625 -1.1875q1.5625 -2.3125 1.5625 -5.640625l0 -8.015625l6.53125 0l0 -2.15625l1.625 0q0.75 0.140625 0.078125 0.59375l0 1.5625l6.75 0l0 1.40625l-13.5 0zm20.03125 9.5q-0.890625 1.859375 -2.75 3.9375l-0.8125 -0.8125q1.859375 -2.015625 2.59375 -3.640625q0.828125 -1.78125 0.828125 -3.796875q0 -2.375 -0.828125 -4.078125q-0.734375 -1.5625 -2.59375 -3.265625l0.8125 -0.734375q1.9375 1.78125 2.75 3.484375q0.96875 2.0 0.96875 4.59375q0 2.3125 -0.96875 4.3125z" fill-rule="nonzero"></path><path fill="#000000" fill-opacity="0.0" d="m35.33727 544.90155l157.6378 0l0 66.64569l-157.6378 0z" fill-rule="nonzero"></path><path fill="#000000" d="m91.96086 567.61316q0 5.5625 -5.1875 8.015625l-1.484375 -1.265625q4.890625 -2.21875 4.96875 -6.828125l0 -7.421875l1.5625 0q0.734375 0.15625 0.140625 0.59375l0 6.90625zm-7.640625 1.625l-1.703125 0l0 -8.375l1.625 0q0.75 0.0625 0.078125 0.59375l0 7.78125zm19.378906 -2.671875q0.140625 5.640625 -4.828125 8.765625l-1.265625 -1.40625q4.375 -2.375 4.375 -6.6875l0 -3.1875l1.5625 0q0.671875 0.078125 0.15625 0.515625l0 1.9375q2.671875 -2.015625 4.078125 -3.9375l-12.09375 0.4375l-0.15625 -1.703125l13.515625 -0.375l0.515625 -0.140625l1.109375 1.328125q0.21875 0.296875 -0.375 0.234375q-2.21875 2.890625 -5.34375 5.40625l-1.25 -1.1875zm19.148438 5.421875q3.265625 -1.265625 6.0 -5.046875l1.046875 1.40625q-2.828125 3.859375 -7.125 5.578125l-0.59375 0.296875l-1.1875 -0.890625l0.140625 -0.375l0 -11.953125l1.5625 0q0.671875 0.15625 0.15625 0.59375l0 10.390625zm-9.953125 2.0q3.71875 -3.5625 3.71875 -8.828125l0 -3.34375l1.546875 0q0.671875 0.15625 0.15625 0.59375l0 2.671875q0 6.234375 -3.9375 9.875l-1.484375 -0.96875zm29.90625 -8.234375q0.828125 0.15625 0.15625 0.59375l0 4.3125q1.859375 0.59375 3.859375 1.625l-0.890625 1.40625q-1.640625 -0.953125 -2.96875 -1.40625q-0.21875 1.5625 -0.96875 2.3125q-0.890625 0.890625 -2.453125 0.890625q-2.078125 0 -2.890625 -0.828125q-0.734375 -0.734375 -0.734375 -1.921875q0 -0.96875 0.734375 -1.71875q0.96875 -0.953125 2.828125 -0.953125q1.25 0 2.0 0.21875l0 -4.53125l1.328125 0zm-7.9375 -1.78125q-1.1875 0.15625 -2.96875 0.15625l-0.21875 -1.5625q1.859375 0 3.703125 -0.15625q0.375 -1.328125 0.890625 -3.5625l1.34375 0.453125q0.734375 0.296875 0 0.59375l-0.671875 2.375q1.265625 -0.15625 2.59375 -0.515625l0.375 1.546875q-2.078125 0.453125 -3.40625 0.53125q-1.1875 3.78125 -3.5 8.234375l-1.484375 -0.75q2.3125 -4.078125 3.34375 -7.34375zm7.125 -2.21875q2.078125 0.65625 4.96875 1.78125l-0.65625 1.546875q-3.125 -1.328125 -4.90625 -1.84375l0.59375 -1.484375zm-0.515625 9.9375q-0.890625 -0.296875 -2.0 -0.296875q-1.1875 0 -1.640625 0.453125q-0.375 0.359375 -0.375 0.890625q0 0.515625 0.296875 0.8125q0.453125 0.4375 1.5625 0.4375q1.046875 0 1.484375 -0.4375q0.671875 -0.671875 0.671875 -1.859375z" fill-rule="nonzero"></path><path fill="#000000" d="m77.4218 591.47253q-1.484375 2.890625 -3.046875 5.34375q0.15625 0.734375 -0.21875 0.375l-1.5625 -1.34375q1.34375 -1.5625 3.484375 -5.421875l1.34375 1.046875zm7.859375 -6.984375q0.75 -1.109375 1.71875 -3.109375l1.484375 0.65625q0.515625 0.375 -0.078125 0.375q-1.1875 2.15625 -1.703125 2.828125l-1.421875 -0.75zm-9.9375 4.53125q-1.109375 -1.34375 -2.296875 -2.15625l0.890625 -1.109375q1.328125 0.734375 2.515625 2.078125l-1.109375 1.1875zm11.28125 4.453125l-6.3125 0l0 4.15625l-1.484375 0l0 -11.875l3.859375 0l0 -4.90625l1.40625 0q0.59375 0.078125 0.078125 0.453125l0 4.453125l3.9375 0l0 10.6875q0 1.046875 -1.046875 1.046875l-1.546875 0l-0.234375 -1.421875l1.046875 0q0.296875 0 0.296875 -0.296875l0 -2.296875zm-6.3125 -8.171875q-0.671875 -1.546875 -1.484375 -2.8125l1.40625 -0.8125q1.046875 1.328125 1.640625 2.890625l-1.5625 0.734375zm0 1.859375l0 1.703125l6.3125 0l0 -1.703125l-6.3125 0zm0 4.90625l6.3125 0l0 -1.78125l-6.3125 0l0 1.78125zm-3.9375 -7.28125q-1.109375 -1.1875 -2.4375 -2.0l0.8125 -1.109375q1.5625 0.8125 2.59375 2.0l-0.96875 1.109375zm25.609375 10.390625l-4.296875 0l0.953125 0.96875q0.15625 0.296875 -0.4375 0.296875q-2.828125 1.40625 -5.5 1.640625l-0.59375 -1.484375q3.5 -0.53125 5.046875 -1.421875l-2.4375 0l0 -5.484375q-1.1875 0.515625 -2.75 0.734375l-0.296875 -1.328125q3.640625 -0.375 4.96875 -2.375l-2.453125 0l-0.140625 0.59375l-1.34375 -0.234375l0.828125 -3.109375l3.703125 0l0 -1.1875l-4.59375 0l0 -0.890625l4.59375 0l0 -1.265625l1.1875 0q0.59375 0.078125 0.078125 0.453125l0 0.8125l2.890625 0l0 -1.265625l1.1875 0q0.59375 0.078125 0.078125 0.453125l0 0.8125l3.78125 0l0 2.96875l-3.78125 0l0 0.96875l5.1875 0l-0.140625 1.703125q-0.078125 1.1875 -1.34375 1.1875l-0.953125 0l-0.234375 -0.890625l0.671875 0q0.59375 0 0.671875 -0.671875l0.078125 -0.4375l-3.9375 0l0 1.703125l2.453125 0l0 6.75l-2.375 0q1.921875 0.96875 5.109375 1.265625l-0.515625 1.40625q-3.78125 -0.21875 -5.9375 -1.859375l0.59375 -0.8125zm-3.859375 -8.453125q-0.21875 0.734375 -1.265625 1.703125l4.53125 0l0 -1.703125l-3.265625 0zm5.5 2.59375l-7.421875 0l0 1.03125l7.421875 0l0 -1.03125zm-7.421875 2.96875l7.421875 0l0 -1.046875l-7.421875 0l0 1.046875zm7.421875 0.890625l-7.421875 0l0 1.109375l7.421875 0l0 -1.109375zm-6.609375 -7.34375q0.078125 -0.375 0.140625 -0.96875l-2.4375 0l-0.234375 0.96875l2.53125 0zm4.375 0l0 -0.96875l-2.890625 0q-0.078125 0.59375 -0.15625 0.96875l3.046875 0zm3.5625 -1.859375l0 -1.1875l-2.296875 0l0 1.1875l2.296875 0zm-3.5625 0l0 -1.1875l-2.890625 0l0 1.1875l2.890625 0zm14.328125 3.703125l0 3.203125l-3.1875 0l0 -3.203125l3.1875 0zm9.34375 -4.75q-0.0625 0.375 -0.4375 1.71875l3.40625 0l0 -3.71875l1.421875 0q0.59375 0.078125 0.0625 0.453125l0 3.265625l6.09375 0l0 1.40625l-6.09375 0l0 3.40625l5.203125 0l0 1.421875l-5.203125 0l0 4.375l7.0625 0l0 1.40625l-16.265625 0l0 -1.40625l7.71875 0l0 -4.375l-4.96875 0l0 -1.421875l4.96875 0l0 -3.40625l-3.859375 0q-0.890625 2.296875 -2.671875 4.078125l-1.109375 -1.1875q2.671875 -2.59375 3.1875 -6.828125l1.5625 0.375q0.453125 0.140625 -0.078125 0.4375zm19.0 -0.4375q5.421875 -0.375 9.359375 -1.1875l0.890625 1.40625q0.140625 0.453125 -0.453125 0.15625q-1.703125 0.296875 -3.484375 0.515625l0 2.96875l5.5 0l0 1.40625l-5.5 0l0 2.890625l3.78125 0l0 6.84375l-1.484375 0l0 -0.59375l-6.0 0l0 0.8125l-1.484375 0l0 -7.0625l3.703125 0l0 -2.890625l-5.265625 0l0 -1.40625l5.265625 0l0 -2.828125q-2.375 0.15625 -4.53125 0.375l-0.296875 -1.40625zm2.609375 12.984375l6.0 0l0 -3.40625l-6.0 0l0 3.40625zm-7.71875 0.75q1.921875 -2.671875 3.109375 -5.34375l1.40625 0.890625q-1.625 3.703125 -2.734375 5.34375q0.140625 0.4375 -0.234375 0.375l-1.546875 -1.265625zm1.40625 -10.390625q1.109375 0.59375 2.59375 1.78125l-0.96875 1.484375q-1.484375 -1.125 -2.59375 -1.859375l0.96875 -1.40625zm0.515625 -4.390625q0.890625 0.53125 2.59375 1.859375l-0.953125 1.640625q-1.640625 -1.34375 -2.609375 -2.078125l0.96875 -1.421875z" fill-rule="nonzero"></path><path fill="#000000" fill-opacity="0.0" d="m767.02496 226.35039l157.63776 0l0 66.645676l-157.63776 0z" fill-rule="nonzero"></path><path fill="#000000" d="m823.6485 249.06198q0 5.5625 -5.1875 8.015625l-1.484375 -1.265625q4.890625 -2.21875 4.96875 -6.828125l0 -7.421875l1.5625 0q0.734375 0.15625 0.140625 0.59375l0 6.90625zm-7.640625 1.625l-1.703125 0l0 -8.375l1.625 0q0.75 0.0625 0.078125 0.59375l0 7.78125zm19.378906 -2.671875q0.140625 5.640625 -4.828125 8.765625l-1.265625 -1.40625q4.375 -2.375 4.375 -6.6875l0 -3.1875l1.5625 0q0.671875 0.078125 0.15625 0.515625l0 1.9375q2.671875 -2.015625 4.078125 -3.9375l-12.09375 0.4375l-0.15625 -1.703125l13.515625 -0.375l0.515625 -0.140625l1.109375 1.328125q0.21875 0.296875 -0.375 0.234375q-2.21875 2.890625 -5.34375 5.40625l-1.25 -1.1875zm19.148438 5.421875q3.265625 -1.265625 6.0 -5.046875l1.046875 1.40625q-2.828125 3.859375 -7.125 5.578125l-0.59375 0.296875l-1.1875 -0.890625l0.140625 -0.375l0 -11.953125l1.5625 0q0.671875 0.15625 0.15625 0.59375l0 10.390625zm-9.953125 2.0q3.71875 -3.5625 3.71875 -8.828125l0 -3.34375l1.546875 0q0.671875 0.15625 0.15625 0.59375l0 2.671875q0 6.234375 -3.9375 9.875l-1.484375 -0.96875zm29.90625 -8.234375q0.828125 0.15625 0.15625 0.59375l0 4.3125q1.859375 0.59375 3.859375 1.625l-0.890625 1.40625q-1.640625 -0.953125 -2.96875 -1.40625q-0.21875 1.5625 -0.96875 2.3125q-0.890625 0.890625 -2.453125 0.890625q-2.078125 0 -2.890625 -0.828125q-0.734375 -0.734375 -0.734375 -1.921875q0 -0.96875 0.734375 -1.71875q0.96875 -0.953125 2.828125 -0.953125q1.25 0 2.0 0.21875l0 -4.53125l1.328125 0zm-7.9375 -1.78125q-1.1875 0.15625 -2.96875 0.15625l-0.21875 -1.5625q1.859375 0 3.703125 -0.15625q0.375 -1.328125 0.890625 -3.5625l1.34375 0.453125q0.734375 0.296875 0 0.59375l-0.671875 2.375q1.265625 -0.15625 2.59375 -0.515625l0.375 1.546875q-2.078125 0.453125 -3.40625 0.53125q-1.1875 3.78125 -3.5 8.234375l-1.484375 -0.75q2.3125 -4.078125 3.34375 -7.34375zm7.125 -2.21875q2.078125 0.65625 4.96875 1.78125l-0.65625 1.546875q-3.125 -1.328125 -4.90625 -1.84375l0.59375 -1.484375zm-0.515625 9.9375q-0.890625 -0.296875 -2.0 -0.296875q-1.1875 0 -1.640625 0.453125q-0.375 0.359375 -0.375 0.890625q0 0.515625 0.296875 0.8125q0.453125 0.4375 1.5625 0.4375q1.046875 0 1.484375 -0.4375q0.671875 -0.671875 0.671875 -1.859375z" fill-rule="nonzero"></path><path fill="#000000" d="m809.25006 264.37448q-0.0625 0.375 -0.4375 1.71875l3.40625 0l0 -3.71875l1.421875 0q0.59375 0.078125 0.0625 0.453125l0 3.265625l6.09375 0l0 1.40625l-6.09375 0l0 3.40625l5.203125 0l0 1.421875l-5.203125 0l0 4.375l7.0625 0l0 1.40625l-16.265625 0l0 -1.40625l7.71875 0l0 -4.375l-4.96875 0l0 -1.421875l4.96875 0l0 -3.40625l-3.859375 0q-0.890625 2.296875 -2.671875 4.078125l-1.109375 -1.1875q2.671875 -2.59375 3.1875 -6.828125l1.5625 0.375q0.453125 0.140625 -0.078125 0.4375zm18.703125 1.046875l-3.1875 0l0 -1.1875l6.390625 0l0 -2.15625l1.40625 0q0.734375 0.15625 0.078125 0.453125l0 1.703125l6.453125 0l0 1.1875l-2.96875 0l-1.265625 2.078125l4.671875 0l0 1.1875l-13.203125 0l0 4.828125q0 3.484375 -2.234375 5.78125l-1.109375 -1.40625q1.859375 -1.484375 1.859375 -5.34375l0 -5.046875l4.0 0l-0.890625 -2.078125zm2.53125 2.078125l2.890625 0l0.96875 -2.078125l-4.671875 0l0.8125 2.078125zm-4.078125 11.203125l0 -1.1875l6.078125 0l0 -2.078125l-3.640625 0l0 -1.1875l3.640625 0l0 -1.703125l-2.8125 0q-0.75 1.1875 -1.78125 2.21875l-1.046875 -1.1875q1.640625 -1.328125 2.671875 -4.15625l1.40625 0.53125q0.59375 0.21875 -0.21875 0.515625l-0.4375 0.890625l2.21875 0l0 -2.0l1.40625 0q0.671875 0.140625 0.078125 0.4375l0 1.5625l4.609375 0l0 1.1875l-4.609375 0l0 1.703125l3.640625 0l0 1.1875l-3.640625 0l0 2.078125l5.9375 0l0 1.1875l-13.5 0zm21.0 -9.578125l0 3.203125l-3.1875 0l0 -3.203125l3.1875 0zm9.875 -5.1875q-2.3125 2.8125 -4.234375 3.9375l-0.890625 -1.34375q2.078125 -1.1875 4.15625 -3.9375l1.109375 0.96875q0.375 0.453125 -0.140625 0.375zm-1.046875 15.21875l-1.484375 0l0 -7.875q-0.734375 0.8125 -2.21875 1.78125l-0.96875 -1.484375q3.1875 -1.921875 5.421875 -5.421875l1.1875 0.96875q0.359375 0.453125 -0.15625 0.375q-0.890625 1.1875 -1.78125 2.296875l0 9.359375zm10.84375 -15.59375l0 1.40625l-8.015625 0l0 -1.40625l8.015625 0zm-8.84375 6.15625l0 -1.40625l10.328125 0l0 1.40625l-3.125 0l0 7.578125q0 1.5625 -1.265625 1.5625l-2.0 0l-0.296875 -1.421875l1.78125 0q0.296875 0 0.296875 -0.296875l0 -7.421875l-5.71875 0zm24.71875 3.5625q1.109375 -2.0 1.34375 -5.78125l-3.265625 0q0.359375 3.640625 1.921875 5.78125zm3.859375 5.71875q-2.296875 -1.25 -3.859375 -3.34375q-2.21875 2.390625 -5.5625 3.5l-0.75 -1.640625q3.125 -0.734375 5.421875 -3.046875q-1.484375 -2.375 -1.859375 -4.890625q-0.59375 1.703125 -1.625 2.890625l-0.96875 -1.265625l0.671875 -0.890625l-2.078125 0l0 4.828125l2.671875 -0.671875l0.21875 1.421875l-7.5625 2.0q-0.078125 0.515625 -0.375 0.21875l-0.453125 -1.859375l0.96875 -0.140625l0 -8.234375l1.40625 0q0.59375 0.0625 0.078125 0.4375l0 7.5l1.5625 -0.296875l0 -10.390625l-3.71875 0l0 -1.40625l8.09375 0l0 1.40625l-2.890625 0l0 3.78125l2.15625 0l0 1.265625q1.703125 -2.96875 2.140625 -7.875l1.71875 0.453125q0.296875 0.296875 -0.234375 0.375q-0.296875 1.921875 -0.65625 2.96875l6.078125 0l0 1.40625l-1.625 0q-0.15625 4.078125 -1.859375 6.96875q1.1875 1.5625 3.703125 2.90625l-0.8125 1.625z" fill-rule="nonzero"></path><path fill="#000000" fill-opacity="0.0" d="m396.84015 377.25067l186.55115 0l0 66.64566l-186.55115 0z" fill-rule="nonzero"></path><path fill="#000000" d="m460.3169 405.22787q4.53125 -2.453125 6.53125 -5.5625q-2.078125 -1.265625 -3.640625 -1.9375l0.890625 -1.625q1.640625 0.734375 3.71875 1.921875q1.03125 -2.140625 1.78125 -5.78125l1.78125 0.59375q0.515625 0.140625 -0.078125 0.4375q-0.96875 3.71875 -2.0 5.71875q1.78125 1.1875 2.890625 2.078125l-0.96875 1.703125q-1.484375 -1.25 -2.8125 -2.140625q-2.75 3.703125 -6.53125 6.015625l-1.5625 -1.421875zm21.296875 -6.15625l-7.421875 0l0 -1.640625l15.21875 0l0 1.640625l-6.078125 0l0 0.96875q0 4.671875 -3.34375 7.71875l-1.484375 -1.109375q3.109375 -2.453125 3.109375 -6.609375l0 -0.96875zm-4.75 -4.53125l0 -1.625l9.140625 0l0 1.625l-9.140625 0zm10.09375 -3.046875q0.96875 0.96875 2.078125 2.609375l-1.03125 0.734375q-1.046875 -1.484375 -2.078125 -2.671875l1.03125 -0.671875zm1.78125 -0.953125q0.96875 1.03125 2.078125 2.515625l-1.03125 0.75q-1.1875 -1.640625 -2.078125 -2.53125l1.03125 -0.734375zm10.3203125 17.4375l-1.484375 0l0 -6.90625q-1.625 1.265625 -4.890625 2.890625l-1.046875 -1.25q7.046875 -3.421875 9.65625 -7.5l1.25 0.96875q0.453125 0.359375 -0.296875 0.515625q-1.25 1.5625 -3.1875 3.1875l0 8.09375zm13.738281 -9.0625q0.140625 5.640625 -4.828125 8.765625l-1.265625 -1.40625q4.375 -2.375 4.375 -6.6875l0 -3.1875l1.5625 0q0.671875 0.078125 0.15625 0.515625l0 1.9375q2.671875 -2.015625 4.078125 -3.9375l-12.09375 0.4375l-0.15625 -1.703125l13.515625 -0.375l0.515625 -0.140625l1.109375 1.328125q0.21875 0.296875 -0.375 0.234375q-2.21875 2.890625 -5.34375 5.40625l-1.25 -1.1875z" fill-rule="nonzero"></path><path fill="#000000" d="m434.52197 417.21225q0.828125 -1.703125 2.75 -3.484375l0.8125 0.734375q-1.84375 1.703125 -2.59375 3.265625q-0.8125 1.703125 -0.8125 4.078125q0 2.015625 0.8125 3.796875q0.75 1.625 2.59375 3.640625l-0.8125 0.8125q-1.859375 -2.078125 -2.75 -3.9375q-0.953125 -2.0 -0.953125 -4.3125q0 -2.59375 0.953125 -4.59375zm14.1875 3.703125q0.140625 5.640625 -4.828125 8.765625l-1.265625 -1.40625q4.375 -2.375 4.375 -6.6875l0 -3.1875l1.5625 0q0.671875 0.078125 0.15625 0.515625l0 1.9375q2.671875 -2.015625 4.078125 -3.9375l-12.09375 0.4375l-0.15625 -1.703125l13.515625 -0.375l0.515625 -0.140625l1.109375 1.328125q0.21875 0.296875 -0.375 0.234375q-2.21875 2.890625 -5.34375 5.40625l-1.25 -1.1875zm22.257812 -5.1875q0.59375 0 0.96875 -0.375q0.375 -0.375 0.375 -0.96875q0 -0.59375 -0.375 -0.953125q-0.375 -0.375 -0.96875 -0.375q-0.59375 0 -0.96875 0.375q-0.359375 0.359375 -0.359375 0.953125q0 0.59375 0.359375 0.96875q0.375 0.375 0.96875 0.375zm0 0.734375q-0.890625 0 -1.484375 -0.59375q-0.59375 -0.59375 -0.59375 -1.484375q0 -0.890625 0.59375 -1.484375q0.59375 -0.59375 1.484375 -0.59375q0.890625 0 1.484375 0.59375q0.59375 0.59375 0.59375 1.484375q0 0.890625 -0.59375 1.484375q-0.59375 0.59375 -1.484375 0.59375zm-13.28125 0.96875l0 -1.625l10.984375 0l1.921875 1.40625q-0.359375 8.984375 -10.15625 11.734375l-1.34375 -1.640625q9.28125 -2.15625 9.71875 -9.875l-11.125 0zm27.304688 4.53125q0 5.5625 -5.1875 8.015625l-1.484375 -1.265625q4.890625 -2.21875 4.96875 -6.828125l0 -7.421875l1.5625 0q0.734375 0.15625 0.140625 0.59375l0 6.90625zm-7.640625 1.625l-1.703125 0l0 -8.375l1.625 0q0.75 0.0625 0.078125 0.59375l0 7.78125zm16.628906 1.265625q-0.15625 1.640625 0.671875 2.453125q0.8125 0.8125 2.296875 0.8125q1.921875 0 2.59375 -0.671875q0.671875 -0.65625 0.671875 -2.21875q0 -1.109375 -0.453125 -2.671875l1.5625 -0.21875q0.515625 2.078125 0.515625 2.8125q0 2.296875 -1.109375 3.421875q-1.1875 1.1875 -3.859375 1.1875q-2.15625 0 -3.40625 -1.265625q-1.1875 -1.1875 -1.046875 -3.265625l0.15625 -2.234375l-3.796875 0l0 -1.40625l4.015625 0l0.296875 -2.890625l-3.484375 0l0 -1.40625l3.703125 0l0.375 -4.234375l1.625 0.21875q0.828125 0.21875 0.15625 0.59375l-0.59375 3.421875l2.890625 0l0 1.40625l-3.109375 0l-0.296875 2.890625l3.5625 0l0 1.40625l-3.796875 0l-0.140625 1.859375zm22.789062 3.046875l0 -2.671875l-8.546875 0l0 2.671875l8.546875 0zm-2.671875 -4.078125l1.328125 -2.234375l-8.609375 0l0 -1.40625l9.28125 0l0.296875 -0.375l1.40625 0.8125q0.15625 0.078125 -0.296875 0.453125l-1.859375 2.75l2.609375 0l0 5.859375l-1.484375 0l0 -0.375l-8.546875 0l0 0.828125l-1.484375 0l0 -6.3125l7.359375 0zm-0.75 -9.953125q2.53125 3.1875 7.5 4.234375l-0.375 1.625q-2.96875 -0.65625 -4.828125 -2.0l0 1.1875l-6.234375 0l0 -1.03125q-2.375 1.703125 -4.8125 2.4375l-0.59375 -1.484375q5.859375 -1.78125 7.71875 -5.78125l1.78125 0.296875q0.21875 0.21875 -0.15625 0.515625zm1.9375 3.640625q-1.640625 -1.046875 -2.828125 -2.890625q-1.1875 1.84375 -2.671875 2.890625l5.5 0zm11.34375 8.75q-0.59375 0.296875 -1.03125 0.296875q-0.890625 0 -1.5625 -0.65625q-0.8125 -0.828125 -0.8125 -2.3125q0 -1.78125 0.96875 -2.734375q0.8125 -0.828125 2.078125 -0.828125q0.65625 0 1.1875 0.234375l0 -2.15625l-3.71875 0.375l-0.296875 -1.5625l4.015625 -0.296875l0 -3.1875l1.40625 0q0.59375 0.21875 0.078125 0.515625l0 2.515625l3.328125 -0.296875l0.234375 1.484375l-3.5625 0.296875l0 3.421875q0.296875 0.4375 0.296875 0.96875q0 1.40625 -1.125 2.8125l0.15625 1.9375q0.078125 1.109375 1.78125 1.109375l3.78125 0q1.5625 0 1.5625 -1.484375l0 -2.890625l1.484375 0.296875l0 2.890625q0 2.59375 -2.75 2.59375l-4.078125 0q-2.96875 0 -3.265625 -2.15625l-0.15625 -1.1875zm11.953125 -4.96875q-2.296875 -2.21875 -4.15625 -3.484375l0.890625 -1.34375q2.671875 1.859375 4.234375 3.5l-0.96875 1.328125zm-12.3125 0q-0.671875 0 -1.125 0.453125q-0.515625 0.515625 -0.515625 1.84375q0 0.890625 0.453125 1.34375q0.21875 0.21875 0.65625 0.21875q0.59375 0 1.046875 -0.4375q0.734375 -0.75 0.734375 -1.78125q0 -0.96875 -0.21875 -1.1875q-0.4375 -0.453125 -1.03125 -0.453125zm19.363281 4.828125q-0.890625 1.859375 -2.75 3.9375l-0.8125 -0.8125q1.859375 -2.015625 2.59375 -3.640625q0.828125 -1.78125 0.828125 -3.796875q0 -2.375 -0.828125 -4.078125q-0.734375 -1.5625 -2.59375 -3.265625l0.8125 -0.734375q1.9375 1.78125 2.75 3.484375q0.96875 2.0 0.96875 4.59375q0 2.3125 -0.96875 4.3125z" fill-rule="nonzero"></path><path fill="#000000" fill-opacity="0.0" d="m382.0346 158.1181l214.99213 0l0 66.645676l-214.99213 0z" fill-rule="nonzero"></path><path fill="#000000" d="m435.28458 179.78282q0.140625 5.640625 -4.828125 8.765625l-1.265625 -1.40625q4.375 -2.375 4.375 -6.6875l0 -3.1875l1.5625 0q0.671875 0.078125 0.15625 0.515625l0 1.9375q2.671875 -2.015625 4.078125 -3.9375l-12.09375 0.4375l-0.15625 -1.703125l13.515625 -0.375l0.515625 -0.140625l1.109375 1.328125q0.21875 0.296875 -0.375 0.234375q-2.21875 2.890625 -5.34375 5.40625l-1.25 -1.1875zm21.820312 -2.59375q-1.421875 8.09375 -9.28125 11.578125l-1.34375 -1.40625q7.28125 -2.96875 8.765625 -10.25l-5.9375 0q-1.703125 2.828125 -3.5625 4.53125l-1.484375 -0.96875q3.859375 -3.484375 4.96875 -8.15625l1.703125 0.59375q0.453125 0.21875 -0.140625 0.4375q-0.296875 0.96875 -0.8125 1.9375l5.34375 0l0.65625 -0.375l1.34375 1.34375q0.515625 0.515625 -0.21875 0.734375zm17.429688 1.046875q-2.21875 3.265625 -3.78125 5.34375l-1.40625 -0.96875q1.625 -2.0 3.046875 -4.15625l-6.171875 1.109375l0 5.5q0 1.03125 1.046875 1.03125l6.828125 0l-0.21875 1.640625l-7.0625 0q-2.296875 0 -2.296875 -2.375l0 -5.5l-4.453125 0.890625l-0.59375 -1.703125l5.046875 -0.890625l0 -4.90625l1.5625 0q0.671875 0.15625 0.140625 0.59375l0 4.09375l6.6875 -1.125l0.59375 -0.359375l1.328125 1.328125q0.296875 0.375 -0.296875 0.453125zm3.9453125 7.9375q8.078125 -1.78125 12.171875 -8.390625l1.328125 1.34375q-3.78125 6.078125 -11.71875 8.609375q-0.234375 0.890625 -0.75 0.078125l-1.03125 -1.640625zm-0.53125 -8.984375q1.859375 0.96875 3.796875 2.375l-1.1875 1.5625q-2.234375 -1.640625 -3.71875 -2.375l1.109375 -1.5625zm2.078125 -4.375q2.015625 1.109375 3.796875 2.375l-1.046875 1.5625q-2.0 -1.421875 -3.703125 -2.375l0.953125 -1.5625zm25.835938 5.34375q0.375 0.671875 -0.671875 0.21875q-4.15625 1.109375 -8.75 1.703125l0 4.828125q0 0.96875 0.953125 0.96875l8.546875 0l-0.15625 1.640625l-8.6875 0q-2.375 0 -2.375 -1.9375l0 -11.65625l1.484375 0q0.828125 0.15625 0.234375 0.59375l0 3.78125q5.046875 -0.59375 8.828125 -1.84375l0.59375 1.703125zm-0.890625 -2.453125q-1.1875 -1.484375 -2.296875 -2.59375l1.03125 -0.8125q1.046875 0.953125 2.296875 2.59375l-1.03125 0.8125zm2.15625 -1.03125q-1.34375 -1.5625 -2.3125 -2.53125l0.890625 -0.8125q1.125 1.03125 2.375 2.515625l-0.953125 0.828125zm13.792999 6.15625q0 5.5625 -5.1875 8.015625l-1.484375 -1.265625q4.890625 -2.21875 4.96875 -6.828125l0 -7.421875l1.5625 0q0.734375 0.15625 0.140625 0.59375l0 6.90625zm-7.640625 1.625l-1.7031555 0l0 -8.375l1.6250305 0q0.75 0.0625 0.078125 0.59375l0 7.78125zm18.253906 -2.515625l-7.421875 0l0 -1.640625l15.21875 0l0 1.640625l-6.078125 0l0 0.96875q0 4.671875 -3.34375 7.71875l-1.484375 -1.109375q3.109375 -2.453125 3.109375 -6.609375l0 -0.96875zm-4.75 -4.53125l0 -1.625l9.875 0l0 1.625l-9.875 0zm21.378906 13.4375l-1.484375 0l0 -6.90625q-1.625 1.265625 -4.890625 2.890625l-1.046875 -1.25q7.046875 -3.421875 9.65625 -7.5l1.25 0.96875q0.453125 0.359375 -0.296875 0.515625q-1.25 1.5625 -3.1875 3.1875l0 8.09375z" fill-rule="nonzero"></path><path fill="#000000" d="m486.28848 209.5172l0 -0.71875q1.109375 0.546875 1.53125 0.828125q0.4375 0.28125 1.328125 0.984375l0 -13.671875l0.9375 0l0 13.671875q1.0 -0.953125 2.875 -1.828125l0 0.71875q-1.34375 1.203125 -2.03125 2.0625q-0.6875 0.859375 -1.125 1.78125l-0.421875 0q-0.34375 -0.796875 -1.046875 -1.703125q-0.703125 -0.90625 -2.046875 -2.125z" fill-rule="nonzero"></path><path fill="#000000" fill-opacity="0.0" d="m382.6199 625.8819l214.99216 0l0 66.64569l-214.99216 0z" fill-rule="nonzero"></path><path fill="#000000" d="m486.87378 646.53094q1.34375 -1.234375 2.046875 -2.125q0.703125 -0.90625 1.046875 -1.703125l0.421875 0q0.4375 0.921875 1.125 1.78125q0.6875 0.859375 2.03125 2.0625l0 0.703125q-1.875 -0.859375 -2.875 -1.8125l0 13.671936l-0.9375 0l0 -13.671936q-0.890625 0.703125 -1.328125 0.984375q-0.4375 0.265625 -1.53125 0.8125l0 -0.703125z" fill-rule="nonzero"></path><path fill="#000000" d="m453.30347 664.35913q0.59375 0 0.96875 -0.375q0.375 -0.375 0.375 -0.96875q0 -0.59375 -0.375 -0.953125q-0.375 -0.375 -0.96875 -0.375q-0.59375 0 -0.96875 0.375q-0.359375 0.359375 -0.359375 0.953125q0 0.59375 0.359375 0.96875q0.375 0.375 0.96875 0.375zm0 0.734375q-0.890625 0 -1.484375 -0.59375q-0.59375 -0.59375 -0.59375 -1.484375q0 -0.890625 0.59375 -1.484375q0.59375 -0.59375 1.484375 -0.59375q0.890625 0 1.484375 0.59375q0.59375 0.59375 0.59375 1.484375q0 0.890625 -0.59375 1.484375q-0.59375 0.59375 -1.484375 0.59375zm-13.28125 0.96875l0 -1.625l10.984375 0l1.921875 1.40625q-0.359375 8.984375 -10.15625 11.734375l-1.34375 -1.640625q9.28125 -2.15625 9.71875 -9.875l-11.125 0zm19.882812 11.140625q7.203125 -1.859375 8.09375 -7.796875l-11.28125 0l0 -1.640625l11.359375 0l0.671875 -0.21875l1.328125 0.8125q0.453125 0.375 -0.140625 0.671875q-1.1875 7.421875 -8.6875 9.65625l-1.34375 -1.484375zm8.390625 -12.03125l-10.234375 0l0 -1.625l10.234375 0l0 1.625zm4.0039062 6.53125q7.796875 -3.265625 11.8125 -9.203125l1.40625 1.1875q0.59375 0.453125 -0.515625 0.671875q-1.421875 1.859375 -3.640625 3.78125l0 10.09375l-1.703125 0l0 -8.6875q-2.609375 2.015625 -6.09375 3.640625l-1.265625 -1.484375zm27.316406 -6.15625q3.71875 4.671875 5.265625 9.875l-2.0 0.65625q-1.859375 -5.859375 -4.828125 -9.34375l1.5625 -1.1875zm-5.640625 1.703125q0.59375 0.375 -0.140625 0.671875q-1.34375 4.671875 -4.3125 8.53125l-1.703125 -1.109375q3.265625 -3.9375 4.375 -8.90625l1.78125 0.8125zm8.90625 -5.78125q0.96875 0.8125 2.375 2.296875l-0.96875 0.890625q-1.328125 -1.484375 -2.375 -2.375l0.96875 -0.8125zm-1.78125 1.109375q1.109375 1.03125 2.375 2.515625l-1.109375 0.828125q-1.109375 -1.484375 -2.296875 -2.53125l1.03125 -0.8125zm7.28125 13.359375q8.078125 -1.78125 12.171875 -8.390625l1.328125 1.34375q-3.78125 6.078125 -11.71875 8.609375q-0.234375 0.890625 -0.75 0.078125l-1.03125 -1.640625zm-0.53125 -8.984375q1.859375 0.96875 3.796875 2.375l-1.1875 1.5625q-2.234375 -1.640625 -3.71875 -2.375l1.109375 -1.5625zm2.078125 -4.375q2.015625 1.109375 3.796875 2.375l-1.046875 1.5625q-2.0 -1.421875 -3.703125 -2.375l0.953125 -1.5625zm13.8828125 8.453125l0 -1.625l16.546875 0l0 1.625l-16.546875 0z" fill-rule="nonzero"></path><path fill="#000000" fill-opacity="0.0" d="m228.28845 69.35433l523.65356 0l0 66.64567l-523.65356 0z" fill-rule="nonzero"></path><path fill="#000000" d="m315.4121 101.84216l-9.375 0l0 -2.0625l19.21875 0l0 2.0625l-7.6875 0l0 1.21875q0 5.90625 -4.21875 9.75l-1.875 -1.40625q3.9375 -3.09375 3.9375 -8.34375l0 -1.21875zm-6.0 -5.71875l0 -2.0625l11.53125 0l0 2.0625l-11.53125 0zm12.75 -3.84375q1.21875 1.21875 2.625 3.28125l-1.3125 0.9375q-1.3125 -1.875 -2.625 -3.375l1.3125 -0.84375zm2.25 -1.21875q1.21875 1.3125 2.625 3.1875l-1.3125 0.9375q-1.5 -2.0625 -2.625 -3.1875l1.3125 -0.9375zm4.40625 12.46875l0 -2.0625l20.90625 0l0 2.0625l-20.90625 0zm31.125 -9.75q-0.375 1.125 -0.9375 2.15625l6.28125 0l1.03125 -0.375l1.21875 1.21875q0.375 0.46875 -0.375 0.75q-0.75 3.75 -2.25 6.84375l2.25 1.5l-1.40625 2.0625l-2.0625 -1.5q-2.71875 3.9375 -7.78125 6.46875l-2.15625 -1.59375q5.625 -2.34375 8.0625 -6.1875q-2.34375 -1.5 -4.59375 -2.71875l1.125 -1.6875q2.90625 1.3125 4.78125 2.4375q1.40625 -2.90625 1.6875 -5.15625l-6.84375 0q-1.78125 3.1875 -4.40625 5.8125l-1.78125 -1.21875q4.78125 -4.96875 6.28125 -10.5l2.25 0.9375q0.75 0.375 -0.375 0.75zm22.125 4.21875q-1.59375 9.375 -3.84375 11.625q-1.21875 1.21875 -2.53125 1.21875q-1.5 0 -2.34375 -0.84375q-2.25 -2.25 -2.25 -5.625q0 -4.125 2.90625 -7.03125q3.1875 -3.1875 7.78125 -3.1875q4.125 0 6.46875 2.34375q2.625 2.625 2.625 6.1875q0 3.84375 -2.4375 6.28125q-1.59375 1.59375 -4.875 3.09375l-1.96875 -1.96875q3.28125 -1.03125 5.15625 -2.90625q1.78125 -1.78125 1.78125 -4.3125q0 -3.0 -1.96875 -4.96875q-1.96875 -1.96875 -6.1875 -1.78125l1.6875 0.84375q1.125 0.46875 0 1.03125zm-2.15625 -1.78125q-2.4375 0.5625 -4.21875 2.34375q-2.4375 2.4375 -2.4375 6.0q0 2.15625 1.40625 3.5625q0.28125 0.28125 0.84375 0.28125q0.5625 0 1.21875 -0.65625q2.15625 -2.15625 3.1875 -11.53125zm16.21875 13.5q11.71875 -2.71875 12.28125 -12.46875l-14.0625 0l0 -2.0625l14.25 0l1.3125 -0.28125l1.03125 0.9375q-0.375 12.46875 -13.125 15.9375l-1.6875 -2.0625zm26.0625 3.375l-1.875 0l0 -8.71875q-2.0625 1.59375 -6.1875 3.65625l-1.3125 -1.59375q8.90625 -4.3125 12.1875 -9.46875l1.59375 1.21875q0.5625 0.46875 -0.375 0.65625q-1.59375 1.96875 -4.03125 4.03125l0 10.21875zm7.03125 -9.5625l0 -2.0625l20.90625 0l0 2.0625l-20.90625 0zm35.0625 2.15625q-4.96875 -2.53125 -8.15625 -3.375l0 9.75l-2.15625 0l0 -18.75l1.875 0q1.125 0.09375 0.28125 0.75l0 5.90625q4.59375 1.3125 9.28125 3.5625l-1.125 2.15625zm-0.1875 -8.25q-1.59375 -1.96875 -3.1875 -3.1875l1.21875 -0.9375q1.59375 1.21875 3.1875 3.1875l-1.21875 0.9375zm2.25 -1.78125q-1.21875 -1.59375 -3.09375 -3.09375l1.21875 -0.9375q1.59375 1.125 3.09375 3.09375l-1.21875 0.9375zm17.90625 0.9375q4.6875 5.90625 6.65625 12.46875l-2.53125 0.84375q-2.34375 -7.40625 -6.09375 -11.8125l1.96875 -1.5zm-7.125 2.15625q0.75 0.46875 -0.1875 0.84375q-1.6875 5.90625 -5.4375 10.78125l-2.15625 -1.40625q4.125 -4.96875 5.53125 -11.25l2.25 1.03125zm11.25 -7.3125q1.21875 1.03125 3.0 2.90625l-1.21875 1.125q-1.6875 -1.875 -3.0 -3.0l1.21875 -1.03125zm-2.25 1.40625q1.40625 1.3125 3.0 3.1875l-1.40625 1.03125q-1.40625 -1.875 -2.90625 -3.1875l1.3125 -1.03125zm22.125 6.9375q-0.65625 6.09375 -3.375 8.8125q-2.71875 2.71875 -7.125 4.3125l-1.21875 -1.78125q4.3125 -1.40625 6.75 -3.84375q2.625 -2.625 3.0 -8.90625l1.96875 0.65625q0.84375 0.28125 0 0.75zm-7.96875 3.375q-1.125 -2.53125 -2.25 -4.21875l1.78125 -0.9375q1.40625 1.78125 2.4375 4.21875l-1.96875 0.9375zm-4.78125 1.40625q-1.125 -2.625 -2.34375 -4.40625l1.875 -0.9375q1.3125 1.78125 2.34375 4.3125l-1.875 1.03125zm31.6875 -6.1875q-1.78125 10.21875 -11.71875 14.625l-1.6875 -1.78125q9.1875 -3.75 11.0625 -12.9375l-7.5 0q-2.15625 3.5625 -4.5 5.71875l-1.875 -1.21875q4.875 -4.40625 6.28125 -10.3125l2.15625 0.75q0.5625 0.28125 -0.1875 0.5625q-0.375 1.21875 -1.03125 2.4375l6.75 0l0.84375 -0.46875l1.6875 1.6875q0.65625 0.65625 -0.28125 0.9375zm15.9375 10.125q4.125 -1.59375 7.59375 -6.375l1.3125 1.78125q-3.5625 4.875 -9.0 7.03125l-0.75 0.375l-1.5 -1.125l0.1875 -0.46875l0 -15.09375l1.96875 0q0.84375 0.1875 0.1875 0.75l0 13.125zm-12.5625 2.53125q4.6875 -4.5 4.6875 -11.15625l0 -4.21875l1.96875 0q0.84375 0.1875 0.1875 0.75l0 3.375q0 7.875 -4.96875 12.46875l-1.875 -1.21875zm23.625 -7.5l0 -2.0625l20.90625 0l0 2.0625l-20.90625 0zm39.9375 -8.4375q0.75 0 1.21875 -0.46875q0.46875 -0.46875 0.46875 -1.21875q0 -0.75 -0.46875 -1.21875q-0.46875 -0.46875 -1.21875 -0.46875q-0.75 0 -1.21875 0.46875q-0.46875 0.46875 -0.46875 1.21875q0 0.75 0.46875 1.21875q0.46875 0.46875 1.21875 0.46875zm0 0.9375q-1.125 0 -1.875 -0.75q-0.75 -0.75 -0.75 -1.875q0 -1.125 0.75 -1.875q0.75 -0.75 1.875 -0.75q1.125 0 1.875 0.75q0.75 0.75 0.75 1.875q0 1.125 -0.75 1.875q-0.75 0.75 -1.875 0.75zm-16.78125 1.21875l0 -2.0625l13.875 0l2.4375 1.78125q-0.46875 11.34375 -12.84375 14.8125l-1.6875 -2.0625q11.71875 -2.71875 12.28125 -12.46875l-14.0625 0zm27.375 3.09375q1.125 -0.375 2.15625 -0.375q1.21875 0 1.96875 0.75q0.5625 0.5625 0.65625 2.0625q2.8125 -1.03125 6.375 -2.15625l0.65625 2.25q-3.65625 0.5625 -6.84375 1.78125l0 4.125l-1.875 0l0 -3.375q-2.8125 1.3125 -3.65625 2.15625q-1.03125 1.03125 -1.03125 2.0625q0 0.5625 0.5625 1.125q0.65625 0.65625 2.53125 0.65625l7.875 0l0 1.78125l-7.96875 0q-3.0 0 -4.21875 -1.21875q-0.9375 -0.9375 -0.9375 -2.34375q0 -1.5 1.21875 -2.71875q1.875 -1.875 5.53125 -3.375q-0.09375 -1.125 -0.46875 -1.5q-0.375 -0.375 -1.59375 -0.375q-1.875 0 -5.71875 3.375l-1.59375 -1.59375q4.40625 -2.71875 6.0 -6.0q-2.625 0.1875 -5.25 0.375l-0.375 -1.875q3.375 -0.09375 6.375 -0.28125q0.46875 -1.125 1.125 -3.75l1.78125 0.46875q0.9375 0.375 0 0.75q-0.375 1.21875 -0.84375 2.4375q3.375 -0.28125 6.46875 -0.75l0.28125 1.96875q-3.65625 0.28125 -7.3125 0.5625q-0.9375 1.875 -1.875 3.0zm21.09375 8.0625q7.03125 -0.09375 9.28125 -2.34375q1.40625 -1.40625 1.40625 -3.46875q0 -2.15625 -1.5 -3.65625q-1.125 -1.125 -3.9375 -1.125q-2.34375 0 -5.53125 1.125q-2.4375 0.84375 -5.34375 2.15625l-1.03125 -2.4375l5.25 -1.5q4.59375 -1.3125 6.9375 -1.3125q3.75 0 5.53125 1.78125q1.78125 1.78125 1.78125 4.78125q0 3.1875 -1.6875 4.875q-3.1875 3.1875 -10.59375 3.28125l-0.5625 -2.15625zm16.5 -5.8125q0 -1.03125 1.03125 -1.96875q6.09375 -5.71875 7.875 -8.625l1.6875 1.3125q0.84375 0.9375 -0.46875 0.75q-1.40625 2.0625 -7.40625 7.6875q-0.375 0.375 -0.375 0.65625q0 0.5625 0.375 0.84375q5.25 4.125 8.4375 7.78125l-1.6875 1.6875q-3.28125 -3.84375 -8.0625 -7.96875q-1.40625 -1.21875 -1.40625 -2.15625zm25.78125 8.15625q1.5 -0.1875 2.53125 -1.21875q1.125 -1.125 1.125 -3.0q0 -2.0625 -1.21875 -3.28125q-1.21875 -1.21875 -3.84375 -1.21875q-3.09375 0 -4.78125 1.21875q-1.59375 1.125 -4.125 4.03125l-1.59375 -1.40625q6.75 -6.75 10.21875 -11.25q-3.09375 0.375 -6.1875 0.65625l-0.65625 -2.15625q4.59375 0 8.15625 -0.46875l0.84375 -0.375l1.03125 1.03125q1.03125 0.9375 -0.46875 1.21875q-2.8125 3.1875 -5.625 6.28125q1.96875 -0.46875 3.28125 -0.46875q3.5625 0 5.25 1.6875q1.6875 1.6875 1.6875 4.3125q0 2.71875 -1.5 4.21875q-2.25 2.25 -5.71875 2.25q-3.28125 0 -4.78125 -1.5q-1.21875 -1.21875 -1.21875 -2.90625q0 -1.125 0.84375 -1.96875q0.9375 -0.9375 2.15625 -0.9375q1.6875 0 2.8125 1.125q1.3125 1.3125 1.78125 4.125zm-1.875 0.28125q-0.28125 -2.4375 -1.125 -3.28125q-0.65625 -0.65625 -1.3125 -0.65625q-0.75 0 -1.125 0.375q-0.46875 0.46875 -0.46875 1.03125q0 0.84375 0.75 1.59375q0.9375 0.9375 2.4375 0.9375q0.375 0 0.84375 0z" fill-rule="nonzero"></path><path fill="#000000" fill-opacity="0.0" d="m175.90817 10.530184l627.24414 0l0 66.645676l-627.24414 0z" fill-rule="nonzero"></path><path fill="#000000" d="m245.84271 39.198017l0 -2.0l5.0 0q0.375 -1.5 0.625 -2.875l-1.375 0q-0.875 1.5 -1.75 2.375l-1.875 -1.5q2.125 -2.25 3.375 -5.499998l2.375 0.5q0.625 0.375 -0.375 0.625l-0.75 1.4999981l8.25 0l0 2.0l-5.5 0q-0.125 1.25 -0.5 2.875l6.75 0l0 2.0l-5.375 0l1.875 0.875q0.625 0.5 -0.25 0.625l-0.875 1.5l3.875 0l0 2.0l-3.75 0l0 1.625l3.0 0l0 2.0l-3.0 0l0 1.625l3.125 0l0 2.0l-3.125 0l0 1.875l3.875 0l0 2.0l-8.75 0l0 2.25l-2.125 0l0 -12.125q-0.75 0.875 -2.125 2.0l-1.5 -2.125q3.875 -2.625 5.25 -6.125l-4.375 0zm6.875 0q-0.5 1.625 -1.5 3.0l2.375 0l0.875 -3.0l-1.75 0zm8.5 -7.999998l11.25 0l0 16.874998l-2.625 0l0 6.25q0 1.0 0.625 1.0l0.625 0q0.875 0 1.0 -0.75l0.25 -2.125l2.625 0.625l-0.375 2.25q-0.375 2.375 -2.25 2.375l-2.75 0q-2.25 0 -2.25 -2.125l0 -7.5l-1.5 0l0 1.5q0 6.5 -6.625 9.0l-1.25 -2.375q5.375 -1.75 5.375 -6.625l0 -1.5l-1.125 0l-1.0 0l0 -16.874998zm2.125 11.874998l0 3.0l7.0 0l0 -3.0l-7.0 0zm0 -2.0l7.0 0l0 -2.875l-7.0 0l0 2.875zm0 -4.875l7.0 0l0 -3.0l-7.0 0l0 3.0zm-12.625 17.125l2.75 0l0 -1.875l-2.75 0l0 1.875zm0 -3.875l2.75 0l0 -1.625l-2.75 0l0 1.625zm0 -5.25l0 1.625l2.75 0l0 -1.625l-2.75 0zm55.125 7.25l-0.5 3.375q-0.375 2.375 -2.625 2.375l-6.75 0q-2.25 0 -2.25 -2.125l0 -11.25l-4.125 0l0 3.0q0 8.75 -10.625 11.625l-1.125 -2.875q9.25 -2.125 9.25 -9.625l0 -2.125l-9.125 0l0 -2.375l12.125 0l0 -11.374998l2.75 0q1.25 0.25 0.125 1.0l0 10.374998l12.25 0l0 2.375l-9.0 0l0 10.0q0 1.0 0.875 1.0l4.375 0q1.0 0 1.125 -0.875l0.375 -3.25l2.875 0.75zm-10.125 -12.875q2.0 -2.875 3.25 -6.624998l2.875 1.6249981q0.5 0.5 -0.375 0.625q-1.25 3.125 -3.125 5.625l-2.625 -1.25zm-11.75 1.125q-1.375 -3.125 -3.125 -5.375l2.75 -1.625q1.75 2.125 3.25 5.5l-2.875 1.5zm34.375 -4.875q0.875 1.25 1.375 3.625l-2.125 1.0q-0.5 -2.25 -1.125 -3.5l1.875 -1.125zm-5.625 2.25q-0.25 4.375 -1.125 8.375l-2.5 -0.5q1.0 -4.875 1.125 -9.0l2.375 0.375q1.125 0.25 0.125 0.75zm3.375 21.375l-2.5 0l0 -28.874998l2.375 0q1.25 0.25 0.125 1.0l0 27.874998zm21.25 -26.0l0 2.0l-7.625 0l0 1.625l6.125 0l0 2.0l-6.125 0l0 1.75l8.5 0l0 2.0l-19.125 0l0 -2.0l8.125 0l0 -1.75l-6.125 0l0 -2.0l6.125 0l0 -1.625l-7.5 0l0 -2.0l7.5 0l0 -2.999998l2.375 0q1.0 0.125 0.125 0.75l0 2.249998l7.625 0zm-1.875 11.0l0 13.125q0 1.625 -1.75 1.625l-2.125 0l-0.75 -2.375l1.625 0q0.5 0 0.5 -0.5l0 -2.375l-8.625 0l0 5.625l-2.5 0l0 -15.125l13.625 0zm-2.5 2.0l-8.625 0l0 1.75l8.625 0l0 -1.75zm0 3.75l-8.625 0l0 1.75l8.625 0l0 -1.75zm35.25 -12.125q0 2.125 -2.0 2.125l-2.875 0l-0.5 -2.375l2.5 0q0.375 0 0.375 -0.375l0 -2.875l-6.5 0l0 7.375l8.0 0l0.375 -0.5l2.0 1.25q0.5 0.5 -0.375 0.625q-0.75 5.125 -3.0 9.5q1.5 2.125 4.375 3.875l-1.5 2.375q-2.375 -1.625 -4.25 -4.0q-1.875 2.625 -4.0 4.25l-1.5 -2.375q2.125 -1.625 3.875 -3.875q-2.0 -3.75 -2.875 -8.75l-1.125 0l0 15.0l-2.5 0l0 -27.124998l11.5 0l0 5.874998zm-13.5 -1.375l-4.5 0l0 2.875l5.75 0l0 2.375l-2.125 0l-1.75 3.625l3.25 0l0 2.375l-5.125 0l0 2.875l5.125 0l0 2.375l-5.125 0l0 6.25l-2.5 0l0 -6.25l-5.5 0l0 -2.375l5.5 0l0 -2.875l-5.5 0l0 -2.375l3.5 0l-1.625 -3.625l-2.75 0l0 -2.375l6.375 0l0 -2.875l-4.75 0l0 -2.375l4.75 0l0 -3.624998l2.375 0q1.0 0.125 0.125 0.75l0 2.874998l4.5 0l0 2.375zm-6.5 8.875l1.625 0l1.375 -3.625l-4.5 0l1.5 3.625zm14.25 -1.25q0.375 3.0 2.25 6.5q1.5 -3.0 2.0 -6.5l-4.25 0zm36.0 7.0l0 2.75l-24.875 0l0 -2.75l10.875 0l0 -12.375l-8.75 0l0 -2.75l20.25 0l0 2.75l-8.625 0l0 12.375l11.125 0zm21.25 -10.875l-17.375 0l0 -2.75l20.25 0l0 17.875l-2.875 0l0 -1.375l-17.375 0l0 -2.75l17.375 0l0 -11.0zm10.5 14.125q13.625 -3.0 20.5 -14.125l2.25 2.25q-6.375 10.25 -19.75 14.5q-0.375 1.5 -1.25 0.125l-1.75 -2.75zm-0.875 -15.125q3.125 1.625 6.375 4.0l-2.0 2.625q-3.75 -2.75 -6.25 -4.0l1.875 -2.625zm3.5 -7.374998q3.375 1.8749981 6.375 3.999998l-1.75 2.625q-3.375 -2.375 -6.25 -4.0l1.625 -2.624998zm38.625 13.124998q5.375 4.125 10.625 9.5l-2.5 2.125q-5.25 -5.5 -10.125 -9.25q-4.875 5.25 -11.125 9.375l-2.375 -2.125q13.25 -8.625 17.0 -17.25l-13.625 0.875l-0.375 -3.0l14.5 -0.625l1.5 -0.375l2.0 2.0q0.875 0.875 -0.5 1.125q-2.375 4.125 -5.0 7.625zm25.5 -1.125l-12.5 0l0 -2.75l25.625 0l0 2.75l-10.25 0l0 1.625q0 7.875 -5.625 13.0l-2.5 -1.875q5.25 -4.125 5.25 -11.125l0 -1.625zm-8.0 -7.625l0 -2.75l16.625 0l0 2.75l-16.625 0zm24.625 15.625l5.25 -0.125q4.5 -9.75 6.875 -19.874998l2.875 0.9999981q1.125 0.75 -0.25 1.125q-2.375 8.875 -6.375 17.5l13.0 -0.625q-2.625 -3.5 -4.125 -5.125l2.5 -1.75q4.25 4.625 8.125 10.875l-2.75 1.875l-2.0 -3.25l-21.0 1.625q-0.75 1.25 -1.125 0l-1.0 -3.25zm46.875 -13.125q-2.125 12.5 -5.125 15.5q-1.625 1.625 -3.375 1.625q-2.0 0 -3.125 -1.125q-3.0 -3.0 -3.0 -7.5q0 -5.5 3.875 -9.375q4.25 -4.25 10.375 -4.25q5.5 0 8.625 3.125q3.5 3.5 3.5 8.25q0 5.125 -3.25 8.375q-2.125 2.125 -6.5 4.125l-2.625 -2.625q4.375 -1.375 6.875 -3.875q2.375 -2.375 2.375 -5.75q0 -4.0 -2.625 -6.625q-2.625 -2.625 -8.25 -2.375l2.25 1.125q1.5 0.625 0 1.375zm-2.875 -2.375q-3.25 0.75 -5.625 3.125q-3.25 3.25 -3.25 8.0q0 2.875 1.875 4.75q0.375 0.375 1.125 0.375q0.75 0 1.625 -0.875q2.875 -2.875 4.25 -15.375zm33.125 -2.625q-3.625 5.125 -7.125 7.5l15.75 0q-4.125 -2.25 -8.625 -7.5zm-8.25 8.25q-1.75 1.0 -4.125 2.25l-1.25 -2.625q8.5 -3.625 12.5 -11.374998l2.75 0.375q1.0 0.375 -0.125 0.625l-0.25 0.375q5.625 6.874998 13.375 9.249998l-1.25 2.75q-1.5 -0.5 -4.25 -2.125l0 2.125l-7.375 0l0 4.25l8.125 0l0 2.375l-8.125 0l0 4.875l11.5 0l0 2.375l-25.5 0l0 -2.375l11.5 0l0 -4.875l-8.125 0l0 -2.375l8.125 0l0 -4.25l-7.5 0l0 -1.625zm33.375 9.625q6.125 -5.625 9.0 -12.5l-7.875 0l0 -2.375l8.5 0l0 -6.249998l2.375 0q1.0 0.125 0.125 0.75l0 5.499998l9.0 0l0 2.375l-8.25 0q2.0 6.0 9.0 12.5l-1.75 2.5q-5.375 -5.375 -8.0 -10.875l0 7.25l3.625 0l0 2.375l-3.625 0l0 6.125l-2.5 0l0 -6.125l-3.25 0l0 -2.375l3.25 0l0 -7.25q-3.0 6.625 -7.75 10.75l-1.875 -2.375zm1.0 -19.624998q-0.625 3.249998 -1.75 6.124998q1.0 0.375 0 0.875l0 20.25l-2.5 0l0 -15.625q-0.875 1.875 -2.25 3.25l-1.75 -2.25q4.25 -5.75 5.875 -14.249998l2.75 1.0q0.625 0.5 -0.375 0.625zm23.5 17.124998q3.5 -5.125 4.625 -10.25l-3.75 0l0 -2.375l3.875 0l0 -5.999998l2.375 0q1.0 0.125 0.125 0.75l0 5.249998l3.5 0l0 2.375l-3.5 0l0 4.0q2.25 1.375 4.125 3.0l-1.375 2.5q-1.75 -1.75 -2.75 -2.625l0 13.75l-2.5 0l0 -14.0q-0.75 2.625 -3.0 5.75l-1.75 -2.125zm14.75 10.25l-2.125 0l0 -5.5l-2.625 0l0 -2.0l2.625 0l0 -7.5l5.875 0l0 -1.5l-8.625 0l0 -2.0l5.375 0l0 -1.875l-3.25 0l0 -2.0l3.25 0l0 -1.625l-4.5 0l0 -2.0l4.5 0l0 -2.999998l2.0 0q1.0 0.125 0.125 0.75l0 2.249998l4.125 0l0 -2.999998l2.0 0q1.0 0.125 0.125 0.75l0 2.249998l4.75 0l0 2.0l-4.75 0l0 1.625l3.375 0l0 2.0l-3.375 0l0 1.875l5.5 0l0 2.0l-8.5 0l0 1.5l6.0 0l0 7.5l2.625 0l0 2.0l-2.625 0l0 3.5q0 1.625 -1.5 1.625l-2.375 0l-0.25 -2.375l1.625 0q0.375 0 0.375 -0.5l0 -2.25l-9.75 0l0 5.5zm2.625 -22.375l4.125 0l0 -1.625l-4.125 0l0 1.625zm0 3.875l4.125 0l0 -1.875l-4.125 0l0 1.875zm3.25 7.25l3.875 0l0 -1.75l-3.875 0l0 1.75zm-5.875 0l3.75 0l0 -1.75l-3.75 0l0 1.75zm0 3.75l3.75 0l0 -1.75l-3.75 0l0 1.75zm5.875 0l3.875 0l0 -1.75l-3.875 0l0 1.75zm37.75006 5.375q-1.5 -3.125 -4.25 -5.625l2.125 -1.875q2.5 2.25 4.5 5.75l-2.375 1.75zm-16.875061 -9.25l-2.5 0l0 -7.5q-2.0 3.0 -5.0 5.375l-1.625 -2.125q4.75 -3.625 6.5 -7.25l-5.375 0l0 -2.375l5.5 0l0 -3.749998l2.375 0q1.0 0.125 0.125 0.75l0 2.999998l4.625 0l0 2.375l-4.625 0l0 1.625q3.25 1.375 5.125 3.25l-1.625 2.25q-1.25 -1.5 -3.5 -2.875l0 7.25zm15.250061 -0.625l-7.25 0l0 0.75l-2.125061 0l0 -16.124998l11.500061 0l0 16.124998l-2.125 0l0 -0.75zm-7.25 -11.0l7.25 0l0 -2.375l-7.25 0l0 2.375zm0 4.5l7.25 0l0 -2.5l-7.25 0l0 2.5zm0 4.5l7.25 0l0 -2.5l-7.25 0l0 2.5zm-4.250061 2.25q2.500061 1.875 4.375061 4.625l-2.250061 1.75q-1.5 -2.625 -3.875 -4.625l1.75 -1.75zm-3.125 1.875q1.0 0.125 0.125 0.75l0 5.125q0 0.875 0.75 0.875l8.000061 0q1.0 0 1.5 -2.5l2.5 0.875q-0.625 4.0 -2.875 4.0l-10.125061 0q-2.25 0 -2.25 -2.25l0 -6.875l2.375 0zm-3.75 1.625q0.75 0.375 -0.125 0.625q-0.875 3.25 -2.625 6.25l-2.375 -1.5q2.0 -3.125 2.625 -6.375l2.5 1.0zm40.62506 -10.0q-1.0 -2.5 -2.625 -4.5l2.125 -1.25q2.0 2.25 2.75 4.375l-2.25 1.375zm10.125 -6.875l-20.5 0l0 20.625l20.5 0l0 -20.625zm0 24.25l0 -1.25l-20.5 0l0 1.5l-2.5 0l0 -26.874998l25.5 0l0 26.624998l-2.5 0zm-7.75 -11.5q3.25 1.625 6.125 3.875l-2.0 2.375q-2.75 -2.375 -6.0 -4.0q-2.875 2.875 -8.125 4.875l-1.625 -2.25q5.0 -2.0 7.375 -4.0q-2.875 -1.5 -6.5 -3.0l1.625 -2.0q3.0 1.125 6.75 2.875q2.875 -3.375 5.125 -9.875l2.75 1.125q1.0 0.25 -0.375 0.875q-2.375 6.0 -5.125 9.125zm-7.875 -10.25q1.625 1.875 2.75 4.375l-2.25 1.375q-1.0 -2.5 -2.625 -4.5l2.125 -1.25z" fill-rule="nonzero"></path></g></svg>

